<svg width="452" height="202" viewBox="0 0 452 202" fill="none" xmlns="http://www.w3.org/2000/svg">
<g clip-path="url(#clip0)" filter="url(#filter0_d)">
<path d="M230.427 111.108H238.091L237.718 139.513H173.022V127.251L218.524 74.8071H186.923C184.003 77.9829 180.138 82.2614 180.138 82.2614H173.022V62.523H237.718V74.8071L192.15 127.251H215.34L230.427 111.108Z" fill="#F2EEDA" stroke="#F2EEDA" stroke-width="1.254" stroke-miterlimit="10"/>
<path d="M281.133 78.9753C278.893 80.9822 276.785 82.9891 274.962 84.7755V139.028H258.646L258.338 83.6066L246.787 73.4618C246.787 73.4618 255.264 64.5299 258.36 62.0378H258.8H274.962V72.8222L281.133 78.9753Z" fill="#F2EEDA" stroke="#F2EEDA" stroke-width="1.254" stroke-miterlimit="10"/>
<path d="M316.687 74.8733C316.643 78.8651 315.501 83.3641 311.856 87.4661C309.814 89.7377 307.025 91.2373 304.016 91.7887C299.668 92.5826 293.431 92.5606 291.718 86.4957C291.279 84.974 291.301 83.3861 291.542 81.8203C292.004 78.8651 293.365 73.2413 297.977 68.6761C293.036 69.9111 286.645 74.0132 281.726 78.4019L276.434 73.0649C278.586 69.5362 285.547 65.2357 289.961 62.7656C292.992 61.0454 296.33 59.9427 299.8 59.656C300.261 59.6119 300.744 59.5899 301.227 59.5678C309.792 59.2591 316.753 66.2502 316.687 74.8733Z" fill="#F2EEDA" stroke="#F2EEDA" stroke-width="1.254" stroke-miterlimit="10"/>
<path d="M404.023 61.8173V73.55H395.195C392.758 80.2986 381.997 111.306 372.971 137.264C368.118 151.268 363.77 163.817 361.53 170.279C360.454 173.366 359.158 176.322 357.533 179.145C354.459 184.504 348.486 192.884 338.362 192.421C338.34 192.421 338.34 192.421 338.34 192.421C334.08 192.62 329.27 191.693 324.549 189.51C313.459 184.415 307.156 174.381 310.472 167.125C313.788 159.869 323.67 156.142 334.189 162.339C339.218 165.295 343.83 172.815 346.421 176.189C352.988 166.375 358.653 151.996 361.267 139.514H351.538L334.607 73.4618H326.108V61.7291H358.236V73.4618H351.011L366.603 123.723C372.269 105.065 378.879 83.1876 381.821 73.55H371.917V61.8173H404.023Z" fill="#F2EEDA" stroke="#F2EEDA" stroke-width="1.254" stroke-miterlimit="10"/>
<path d="M443.398 126.899V140.682L399.566 140.616L402.969 120.768L413.686 122.995L414.674 30.8756C407.361 24.5461 400.795 19.4957 400.795 19.4957L430.486 6.77057L429.366 126.899H443.398Z" fill="#F2EEDA" stroke="#F2EEDA" stroke-width="1.254" stroke-miterlimit="10"/>
<path d="M136.678 74.785C128.728 74.785 122.008 82.3055 119.681 92.737H153.697C151.348 82.3055 144.606 74.785 136.678 74.785Z" stroke="#F2EEDA" stroke-width="1.0059" stroke-miterlimit="10"/>
<path d="M149.042 116.004C143.749 120.172 141.004 125.994 141.905 130.427C140.916 130.78 139.774 131.045 138.457 131.133C138.259 131.177 135.36 131.001 134.153 130.648C123.919 127.648 118.802 110.49 118.802 100.831C118.802 99.7943 118.846 98.8018 118.912 97.7874C118.912 97.6991 118.934 97.6109 118.934 97.5227H158.968L168.894 97.4565C167.62 77.1669 153.631 61.1998 136.59 61.1998C121.02 61.1998 108.042 74.4984 104.923 92.2518C104.616 94.1043 104.396 95.9789 104.286 97.8976C104.221 98.7577 104.199 99.6399 104.199 100.522C104.199 122.245 118.934 140.44 136.832 140.44C136.832 140.44 147.263 140.374 157.936 134.088C159.012 133.449 160.088 132.743 161.164 131.971C167.752 126.81 170.365 119.047 167.005 114.659C163.667 110.248 155.608 110.843 149.042 116.004ZM136.678 74.7851C144.606 74.7851 151.348 82.3055 153.697 92.737H119.681C122.008 82.3055 128.728 74.7851 136.678 74.7851Z" fill="#F2EEDA" stroke="#F2EEDA" stroke-width="1.254" stroke-miterlimit="10"/>
<path d="M112.522 8.15997L112.368 28.9569L94.9972 28.9128L94.9533 116.533C94.9533 116.82 94.8874 121.076 93.8992 126.965C92.1424 137.308 87.9699 152.04 75.5403 160.421C75.5403 160.421 64.8676 169.529 42.1825 169.485H42.1606C40.0524 169.485 37.8563 169.397 35.5505 169.198C32.2125 168.713 28.7208 167.676 25.2731 166.022C11.5039 159.472 3.5323 146.13 7.4632 136.183C11.1965 126.766 24.3068 123.811 37.4171 129.104C38.1199 129.391 38.8446 129.699 39.5473 130.052C49.0342 134.551 55.776 142.27 57.7524 149.901C60.8489 149.835 63.3963 148.379 66.5146 146.549C78.2854 139.69 78.7685 117.68 78.7685 116.224L78.8124 27.5234L61.4857 21.1277V8.66721L112.522 8.15997Z" fill="#F2EEDA" stroke="#F2EEDA" stroke-width="1.3092" stroke-miterlimit="10"/>
</g>
<defs>
<filter id="filter0_d" x="-3.1908" y="0" width="459" height="209" filterUnits="userSpaceOnUse" color-interpolation-filters="sRGB">
<feFlood flood-opacity="0" result="BackgroundImageFix"/>
<feColorMatrix in="SourceAlpha" type="matrix" values="0 0 0 0 0 0 0 0 0 0 0 0 0 0 0 0 0 0 127 0"/>
<feOffset dy="4"/>
<feGaussianBlur stdDeviation="2"/>
<feColorMatrix type="matrix" values="0 0 0 0 0 0 0 0 0 0 0 0 0 0 0 0 0 0 0.25 0"/>
<feBlend mode="normal" in2="BackgroundImageFix" result="effect1_dropShadow"/>
<feBlend mode="normal" in="SourceGraphic" in2="effect1_dropShadow" result="shape"/>
</filter>
<clipPath id="clip0">
<rect width="451" height="201" fill="white" transform="translate(0.809204)"/>
</clipPath>
</defs>
</svg>
