<svg xmlns="http://www.w3.org/2000/svg" viewBox="0 0 219.97 252.76"><defs><style>.cls-1{fill:none;stroke:#99bdc7;stroke-linecap:round;stroke-linejoin:round;stroke-width:2px;}.cls-2{fill:#584c48;}</style></defs><g id="Layer_5" data-name="Layer 5"><g id="Layer_2" data-name="Layer 2"><path class="cls-1" d="M192.56,215c.16-.5-2.34-8.1-2.67-9-2.49-6.63-8.41-26.51-2.83-47.82.84-3.24,1.86-6.66,3-9.83.26-.7,1.66-3.33.34-3.83-.45-.17-8.25,12.57-15.41,19.53-4.18,4.07-7.3,9.42-27.23,9-10.45-.24-20-3.33-27.11-9.75" transform="translate(-25.42 -29.52)"/><path class="cls-1" d="M170.28,62.39c3.93-1.68,8.18-3.93,12-5.8,7.1-3.47,7.06-4.38,7.26-4.73,1-1.67-7.17-10.79-27.62-12.85-27-2.7-52.39-1.26-74.33,15.69-1.76,1.36-3.43,2.8-5,4.3a68.34,68.34,0,0,0-12,15.36,76,76,0,0,0-5.12,10.78A88.4,88.4,0,0,0,59.79,117c0,2,.07,4,.21,5.91h0c3.92,56.48,61.73,65.15,71.25,68,5.94,1.81,26.55,7.14,30.65,8.83,6.82,2.81,15,6.4,21.16,10.5,1.83,1.22,3.73,2.41,5.66,3.5" transform="translate(-25.42 -29.52)"/><path class="cls-1" d="M170.17,62.46c-.82.56-6.93,3.31-6.52,4.71.55,1.9,6,1.14,6.8,1.14,3.19,0,8.35-.68,11.37.48,2.71,1,2.67,3.19.41,4.74-6.19,4.21-15,6.29-22,9.52-5.82,2.72-11.38,5.94-17,9-11.36,6.12-43.09,18.53-32.94,53.78" transform="translate(-25.42 -29.52)"/></g><g id="Layer_3" data-name="Layer 3"><path class="cls-1" d="M60.32,122.94H60c-4.51-.19-8.48-4.56-10.87-8-4-5.77-6.09-12-8.6-18.37-.48-1.23-1-2.45-1.52-3.68a54.29,54.29,0,0,0-2.92-5.35c-.47-.8-.93-1.61-1.34-2.45a56.5,56.5,0,0,0-5.14-8.38,15.86,15.86,0,0,0-2.31-2.6c-.27-.23-.74-.26-.87-.58-.05-.14.05-.31.15-.44.84-1,2.74-1.86,3.9-2.52a37.73,37.73,0,0,1,14.16-4.77c12.82-1.6,26-.71,37.73-7" transform="translate(-25.42 -29.52)"/><path class="cls-1" d="M36.64,87.2c7.93-14.48,31-14.24,32.8-13.11" transform="translate(-25.42 -29.52)"/><path class="cls-1" d="M40.48,96.64c1-2,4.13-4.21,6.05-5.54a30.87,30.87,0,0,1,19-6" transform="translate(-25.42 -29.52)"/><path class="cls-1" d="M44.8,107.08c1.74-1.41,2.49-2,3.54-2.7a31,31,0,0,1,13.13-5.53" transform="translate(-25.42 -29.52)"/><path class="cls-1" d="M108,93c-7.57,4.74-7.06,11.32-15,7.75a11.82,11.82,0,0,1-4-4.27,1.17,1.17,0,0,0-.39-.16c-1.83-.59-9-2-9.42-4.52-.29-1.85,1.58-2.67,3.08-3.07,11.47-3.07,26.61-2.21,29.39-1.72a30.72,30.72,0,0,1,4.89,1,7.94,7.94,0,0,1,1.79.85C118.93,89.22,109.86,91.87,108,93Z" transform="translate(-25.42 -29.52)"/><path class="cls-1" d="M88.64,96.33a15.86,15.86,0,0,1,2.76-3c4.46-3.64,10.87-4.3,13.83-4.6a110,110,0,0,1,11.19-.24h.36" transform="translate(-25.42 -29.52)"/><path class="cls-1" d="M131.35,153.33a14.86,14.86,0,0,1-2.12,3.71,16.72,16.72,0,0,1-8.59,6.21,13.13,13.13,0,0,1-7.43.17,10.56,10.56,0,0,1-3.82-1.81,21.21,21.21,0,0,0,3-1.55,24.38,24.38,0,0,0,3.33-2.39,36.5,36.5,0,0,0,8.47-11c1.42-2.67,4.49-12,6.08-16.91,0,.16,0,.32-.05.48,0,.84,0,1.64,0,2.47a68.45,68.45,0,0,0,.63,7.45C131.46,143.85,132.49,149.73,131.35,153.33Z" transform="translate(-25.42 -29.52)"/><path class="cls-1" d="M108.05,160l-.1-.16" transform="translate(-25.42 -29.52)"/><path class="cls-1" d="M130.3,129.67v.08c-1.59,4.95-4.66,14.24-6.08,16.91a36.5,36.5,0,0,1-8.47,11,24.38,24.38,0,0,1-3.33,2.39,21.21,21.21,0,0,1-3,1.55,5.75,5.75,0,0,1-1.5-1.77l.06,0a10,10,0,0,1-1.2-6.15,12.42,12.42,0,0,1,3.55-7.86c2.3-2.39,5.45-4.08,8.7-6a57.93,57.93,0,0,0,6.21-4.33,19.43,19.43,0,0,0,4.23-4.59c.26-.43.6-1.77.95-2.06S130.34,129.38,130.3,129.67Z" transform="translate(-25.42 -29.52)"/><path class="cls-1" d="M130.37,129.51c0,.08-.05.16-.07.24" transform="translate(-25.42 -29.52)"/><path class="cls-1" d="M109.39,161.61" transform="translate(-25.42 -29.52)"/><path class="cls-1" d="M128.88,58.88c-.73,4.25-4.1,22.85,9.47,35.63" transform="translate(-25.42 -29.52)"/><ellipse class="cls-1" cx="80.03" cy="34.95" rx="2.49" ry="2.38"/><path class="cls-1" d="M86.74,75.59a2.36,2.36,0,1,1-2.36-2.51A2.44,2.44,0,0,1,86.74,75.59Z" transform="translate(-25.42 -29.52)"/><path class="cls-1" d="M90.21,117.32a2.54,2.54,0,1,1-2.54-2.53A2.53,2.53,0,0,1,90.21,117.32Z" transform="translate(-25.42 -29.52)"/><path class="cls-1" d="M75.78,115.06a2.43,2.43,0,1,1-2.44-2.45A2.43,2.43,0,0,1,75.78,115.06Z" transform="translate(-25.42 -29.52)"/><path class="cls-1" d="M81,142a2.58,2.58,0,1,1-2.58-2.37A2.49,2.49,0,0,1,81,142Z" transform="translate(-25.42 -29.52)"/><path class="cls-1" d="M96.35,159.18A2.4,2.4,0,1,1,94,156.8,2.4,2.4,0,0,1,96.35,159.18Z" transform="translate(-25.42 -29.52)"/><ellipse class="cls-1" cx="121.52" cy="19.93" rx="3.64" ry="3.47"/><path class="cls-1" d="M153,176.66c-7.13,9.48.52,17.52.14,17.18" transform="translate(-25.42 -29.52)"/><path class="cls-1" d="M201.37,52.09a1.71,1.71,0,0,1,1.74-1.68c1,0,1.26.8,1.26,1.72s-.3,1.65-1.26,1.65A1.72,1.72,0,0,1,201.37,52.09Z" transform="translate(-25.42 -29.52)"/><path class="cls-1" d="M204.41,51.77c0-.93,2.47-1.68,5.52-1.68s5.51.75,5.51,1.68-2.47,1.68-5.51,1.68S204.41,52.7,204.41,51.77Z" transform="translate(-25.42 -29.52)"/><path class="cls-1" d="M209.08,49.79c0-4.42,2-8.38,4.53-11.92a20.5,20.5,0,0,1,3.54-4.22,32,32,0,0,1,3.59-2.55c.13-.08.95-.64,1.12-.58s.37,1.47.37,1.7a22.86,22.86,0,0,1-.11,4.68c-.86,4.12-3.23,9.14-6.87,11.51a18.25,18.25,0,0,1-3.85,1.8" transform="translate(-25.42 -29.52)"/><path class="cls-1" d="M206.4,49.76c0-1-.21-11.83,4.91-12.75.35-.06,1,2.1.63,3.51" transform="translate(-25.42 -29.52)"/></g></g><g id="fly-text"><path class="cls-2" d="M113.44,236A48.75,48.75,0,0,0,134,221.47a49.78,49.78,0,0,0,6.8-10.63,48.42,48.42,0,0,0,2.33-6,17.27,17.27,0,0,0,1.18-5.84c-.1-2-1.3-4.07-3.59-3.71s-3.23,2.79-4,4.62a136.44,136.44,0,0,0-5.18,14.84,139.29,139.29,0,0,0-5.14,30.89,137.6,137.6,0,0,0,.07,15.6q.24,3.93.72,7.83a13.53,13.53,0,0,0,1.69,6,5.63,5.63,0,0,0,2.18,2,1,1,0,0,0,1.37-.36,47.74,47.74,0,0,0,1-34.51,46.26,46.26,0,0,0-4.3-8.94l-1.37,1.37c3.25,1.9,6.89-.26,9.21-2.65a30.29,30.29,0,0,0,3.43-4.45,45.63,45.63,0,0,0,2.86-5,47.29,47.29,0,0,0,2.48-6.19l-1.93-.53a109.73,109.73,0,0,0-1.2,24.22c.05.67.85,1.36,1.51.86a66.59,66.59,0,0,0,17.44-19.48,64.4,64.4,0,0,0,3.37-6.56l-1.86-.5a41.07,41.07,0,0,0,2.56,17.42c.42,1.11,1.29,2.55.82,3.76a4,4,0,0,1-1.92,1.88c-2.17,1.19-4.89,1.19-7.3,1.15-3-.05-5.92-.49-8.89-.63v2a45.36,45.36,0,0,0,19.54-5.86,49.85,49.85,0,0,0,15.39-13.62,45.92,45.92,0,0,0,5.13-8.78,38.19,38.19,0,0,0,3-9.93c.27-1.92-.3-3.92-2.35-4.5a4.72,4.72,0,0,0-4.83,1.76,20.6,20.6,0,0,0-3,5.5,48.51,48.51,0,0,0-2,6.11c-1.15,4.3-2,8.69-2.93,13s-1.78,8.55-2.69,12.82l-.75,3.45a1,1,0,0,0,1.93.53,48.52,48.52,0,0,1,4.46-10,58.43,58.43,0,0,1,6.55-8.78c.46-.51,2.72-3.36,3.48-2a3.9,3.9,0,0,1,.07,2.17c-.13,1.1-.26,2.19-.41,3.29-.28,2.22-.61,4.43-1,6.65a18.64,18.64,0,0,0-.47,5.31,3.14,3.14,0,0,0,3.32,3,7.46,7.46,0,0,0,4.72-2.43c.9-.92-.52-2.33-1.41-1.41s-2.32,2-3.67,1.85-1.07-2-1-2.93.29-1.89.44-2.83c.18-1.13.35-2.26.52-3.4q.48-3.41.89-6.82c.19-1.64.26-3.71-1.5-4.53s-3.64.68-4.8,1.95a64.49,64.49,0,0,0-6.89,8.9A51,51,0,0,0,173,239.91l1.93.53c1.79-8.22,3.43-16.46,5.25-24.67A59.23,59.23,0,0,1,183.72,204c.7-1.53,1.5-3.52,3-4.5,1.13-.75,2.86-.57,2.92,1a10.5,10.5,0,0,1-.38,2.49c-.18.78-.37,1.56-.59,2.33a43.22,43.22,0,0,1-1.58,4.52,44.62,44.62,0,0,1-4.62,8.37,47.29,47.29,0,0,1-13.82,13.06,43.75,43.75,0,0,1-17.82,6.37c-.79.1-1.59.16-2.39.21a1,1,0,0,0,0,2c2.79.13,5.57.53,8.36.62s5.7,0,8.23-1.11c2.29-1,4.07-3,3.52-5.68a44.76,44.76,0,0,0-1.58-4.47,40.41,40.41,0,0,1-1.16-4.45,39.26,39.26,0,0,1-.64-10.49,1,1,0,0,0-1.87-.51,64.54,64.54,0,0,1-20.09,25.33l1.5.86a107.36,107.36,0,0,1,1.13-23.69,1,1,0,0,0-1.93-.53,43.31,43.31,0,0,1-5.94,11.87,17.32,17.32,0,0,1-4.16,4.46c-1.46,1-3.29,1.72-4.94.75a1,1,0,0,0-1.37,1.37,45.67,45.67,0,0,1,6,32.42,43.76,43.76,0,0,1-2.73,9l1.37-.36c-1.65-.8-2.25-2.59-2.59-4.28a59.47,59.47,0,0,1-.79-6.8,136.9,136.9,0,0,1,7.69-57.92c.82-2.27,1.65-4.57,2.66-6.76.38-.8,2-3.48,3-1.74.76,1.44.06,3.42-.33,4.86a45.09,45.09,0,0,1-1.94,5.63,47.67,47.67,0,0,1-5.9,10.15A47.15,47.15,0,0,1,115.56,233c-.87.39-1.76.74-2.65,1.06-1.2.44-.69,2.38.53,1.93Z" transform="translate(-25.42 -29.52)"/><path class="cls-2" d="M43.13,240.21c6.26-4,12.54-8.24,17.56-13.78C65.38,221.27,69,215,69.83,208c.43-3.51-.06-7.44-2.68-10a1,1,0,0,0-1.41,0c-3.61,3.45-5.77,8-7.7,12.53q-3.16,7.43-5.68,15.1a179.14,179.14,0,0,0-7.16,31.52c-.69,5.14-1.26,10.39-.36,15.54.65,3.76,2.64,10.19,7.61,9.64,4.45-.5,6.33-5.94,7.45-9.57a42.48,42.48,0,0,0,1.83-13,43.4,43.4,0,0,0-8.12-24.79c-.65-.89-1.34-1.76-2-2.59l-1.22,1.57c4.3,1.94,9.18,1,13.16-1.26s7.23-5.76,10.44-9c6-6.06,12-12.79,14.58-21.09a26.69,26.69,0,0,0,.79-3.17,10.49,10.49,0,0,0,.27-3.11,2.82,2.82,0,0,0-4.27-2.28c-1.94,1-2.87,3.26-3.77,5.15a71.24,71.24,0,0,0-7,34.84c.1,1.71.21,4.44,2.39,4.79a3.44,3.44,0,0,0,2.93-1.45A29.57,29.57,0,0,0,82,234.8,33.1,33.1,0,0,0,88,223.11a31.43,31.43,0,0,0,.7-3.2,1,1,0,0,0-1.92-.53,28.09,28.09,0,0,0-.18,18.76,1,1,0,0,0,1.23.7,27.18,27.18,0,0,0,16.46-14.71,25.3,25.3,0,0,0,1.91-6.18,1,1,0,0,0-.69-1.23,3.75,3.75,0,0,0-4,1.9,11.61,11.61,0,0,0-1.49,5A128,128,0,0,0,99,238c-.06,4.8.3,9.57.52,14.36.21,4.34.14,8.76-1.38,12.88a14,14,0,0,1-6.68,8,9.71,9.71,0,0,1-8.81-.27c-3-1.76-3.93-5.27-3.2-8.53.85-3.79,3.2-7,5.78-9.83a48.31,48.31,0,0,1,9.3-7.88,50.27,50.27,0,0,1,5.25-3c1.28-.62,4.72-1.62,3.42-3.7a1.48,1.48,0,0,0-2.34-.32,1,1,0,0,0,0,1.42,1,1,0,0,0,1.41,0l-.16.09h-.53c.24,0,0,0-.07-.13s.06-.38,0-.38-.39.23-.48.27c-.46.22-.93.41-1.39.62-.91.43-1.81.88-2.69,1.36a49.16,49.16,0,0,0-5.12,3.19,50.7,50.7,0,0,0-9,8.11c-2.49,2.88-4.72,6.29-5.43,10.09-.65,3.51.21,7.27,3.11,9.55a11.3,11.3,0,0,0,9.22,2,13.42,13.42,0,0,0,8.31-6c4.93-7.47,3.36-16.77,3-25.17a130.82,130.82,0,0,1,.22-14.28q.25-3.56.69-7.1a7.16,7.16,0,0,1,1.58-4.18,1.42,1.42,0,0,1,1.33-.49l-.69-1.23a25.29,25.29,0,0,1-11.56,17,23.94,23.94,0,0,1-5.42,2.48l1.23.7a26.36,26.36,0,0,1,.17-17.7l-1.92-.53a31.51,31.51,0,0,1-4.13,11.1,30.48,30.48,0,0,1-3.52,4.7c-.32.35-1.34,1.76-1.89,1.55s-.53-1.13-.56-1.51a61.41,61.41,0,0,1,.25-13,70.52,70.52,0,0,1,2.65-12.61,62.74,62.74,0,0,1,5-12c.35-.64,2.2-3.16,2.95-1.71a4.05,4.05,0,0,1,0,2.39,27.73,27.73,0,0,1-.63,2.81c-2.09,7.54-7.29,13.77-12.61,19.31a91.6,91.6,0,0,1-8.83,8.46c-3.17,2.52-7.12,4.44-11.27,4a9.24,9.24,0,0,1-2.78-.75,1,1,0,0,0-1.21,1.57,40.82,40.82,0,0,1,9.4,22.55,41.41,41.41,0,0,1-.64,12.32,40.33,40.33,0,0,1-1.76,6,11.23,11.23,0,0,1-3.06,4.86,3.12,3.12,0,0,1-4.38-.21c-1.5-1.49-2.17-3.74-2.64-5.74-1.12-4.77-.7-9.76-.1-14.56a175,175,0,0,1,6.42-30q2.23-7.32,5.1-14.42c1.77-4.39,3.58-8.95,6.45-12.75a20.82,20.82,0,0,1,2.22-2.47H65.74c2.13,2.11,2.42,5.31,2.14,8.15a26.5,26.5,0,0,1-2.74,9.06c-3,6.11-7.89,11-13.24,15.19-3.13,2.43-6.45,4.61-9.78,6.75-1.08.69-.08,2.42,1,1.72Z" transform="translate(-25.42 -29.52)"/><path class="cls-2" d="M145.89,206.34l-.26,1.3c-.11.57.27,1.35,1,1.27a11.93,11.93,0,0,0,6.1-2.5c.89-.7,1.94-1.88,1.16-3.06s-2.24-.85-3.32-.54a7.65,7.65,0,0,0-3.21,1.86,1,1,0,0,0,1.41,1.42,5.55,5.55,0,0,1,2.44-1.38l.4-.1.25,0,.28,0a.54.54,0,0,1,.18,0h0c.11,0,.11,0,0,0a.41.41,0,0,1-.12-.14,1.42,1.42,0,0,1,0-.22c0,.06,0,.06,0,0a1.4,1.4,0,0,1-.1.16c.06-.06,0-.05,0,0l-.13.14a9,9,0,0,1-2.53,1.65l-.55.22a8.45,8.45,0,0,1-.81.26l-.72.18-.42.07-.21,0c.09,0,.07,0-.05,0l1,1.27.25-1.31a1,1,0,0,0-.69-1.23,1,1,0,0,0-1.23.7Z" transform="translate(-25.42 -29.52)"/><path class="cls-2" d="M194.77,238.43c5.18-4.87,7.73-11.89,8.85-18.76a1,1,0,0,0-1.83-.77,49.68,49.68,0,0,0-3.56,10.26A42.91,42.91,0,0,0,197,239.92a1,1,0,0,0,1.51.87,10.13,10.13,0,0,0,3.05-3.13c.92-1.22,1.94-2.35,2.88-3.55a42.59,42.59,0,0,0,7.75-15.6l-1.93-.53-4,21.55,2,.26c.69-6.4,2.91-13.15,7.84-17.55,1.1-1,2.62-2.33,4.18-2.41a1.54,1.54,0,0,1,1.65,1,8.59,8.59,0,0,1,.12,2.68c0,2.1-.08,4.2-.23,6.29-.08,1.08-.19,2.17-.33,3.24-.1.8-.26,1.58-.28,2.38-.08,3.17,1.58,6.38,5,6.53,1.28.05,1.28-1.95,0-2-2.76-.12-3.29-3.37-2.95-5.56s.52-4.42.63-6.65c0-1.08.08-2.17.1-3.26a30.28,30.28,0,0,0,0-3.16,3.57,3.57,0,0,0-3.58-3.46c-1.9,0-3.59,1.21-5,2.33a22.56,22.56,0,0,0-6.17,8.14,36.65,36.65,0,0,0-3,11.49c-.12,1.12,1.76,1.38,2,.27l4-21.55c.24-1.24-1.6-1.79-1.93-.53a41.06,41.06,0,0,1-3.92,9.73,42.23,42.23,0,0,1-2.95,4.52c-.94,1.24-2,2.38-3,3.62-.83,1.08-1.69,2.57-2.94,3.21l1.5.86a41,41,0,0,1,1.18-10.23,47.53,47.53,0,0,1,3.37-9.78l-1.83-.77c-1.07,6.54-3.39,13.23-8.33,17.87-.94.89.48,2.3,1.41,1.42Z" transform="translate(-25.42 -29.52)"/><path class="cls-2" d="M245,223.11c.19-2.9-2.64-5-5.32-5.13-3.1-.15-5.78,2.08-7.83,4.14-4.3,4.32-7.63,10-7.93,16.18-.08,1.54.45,3.08,2.15,3.37a7.14,7.14,0,0,0,4.08-.92,29.21,29.21,0,0,0,7.72-5.52,28.48,28.48,0,0,0,5.87-7.29c.9-1.75,3.38-7.49-.22-7.76-1.62-.12-2.47,1.32-3,2.61a35.06,35.06,0,0,0-1.61,4.69,51.34,51.34,0,0,0-1.49,9.54c-.48,6.57-.12,13.17-.58,19.74a48.42,48.42,0,0,1-1.51,9.57c-.73,2.61-1.91,5.43-4.27,7-2.53,1.64-5.81,1.59-8.67,1.06a22.69,22.69,0,0,1-8-3.12,20.93,20.93,0,0,1-6.22-5.89,2.24,2.24,0,0,1-.45-2,5.84,5.84,0,0,1,1.25-2.1,15,15,0,0,1,3.3-2.95c5.7-3.78,13.1-4.08,19.73-4,1.79,0,3.57.09,5.36.22,1.28.1,1.28-1.9,0-2a81.74,81.74,0,0,0-10.73-.08,40,40,0,0,0-9.85,1.59,20.66,20.66,0,0,0-7.85,4.39,12.21,12.21,0,0,0-2.72,3.39,4.35,4.35,0,0,0,.23,4.58,24.1,24.1,0,0,0,13.73,9.55,18.72,18.72,0,0,0,8.67.44,10.18,10.18,0,0,0,6.7-5.14,25.75,25.75,0,0,0,2.59-8.26,71.41,71.41,0,0,0,.89-9.46c.22-6.27-.06-12.57.62-18.82a40.9,40.9,0,0,1,1.95-9.1c.23-.67.48-1.32.76-2,.18-.42.48-1.38,1-1.43.14,0,.11-.13.06.14s-.07.63-.12.94a12.82,12.82,0,0,1-.58,2.1,20.89,20.89,0,0,1-4.94,7.18,33,33,0,0,1-7,5.63,10.3,10.3,0,0,1-3.84,1.57c-.34,0-.81,0-1-.31a4.6,4.6,0,0,1,0-2.12,20.47,20.47,0,0,1,2.9-8.19,28.76,28.76,0,0,1,5.55-6.69c1.9-1.7,4.67-3.35,7.15-1.8a2.7,2.7,0,0,1,1.41,2.49c-.08,1.29,1.92,1.28,2,0Z" transform="translate(-25.42 -29.52)"/></g></svg>