<svg xmlns="http://www.w3.org/2000/svg" viewBox="0 0 438.58 96.32"><defs><style>.cls-1,.cls-3,.cls-5,.cls-6,.cls-7{fill:none;}.cls-1,.cls-5,.cls-6,.cls-7{stroke:#98bdc7;stroke-linecap:round;stroke-linejoin:round;}.cls-1,.cls-3{stroke-width:1.2px;}.cls-2{fill:#584c48;}.cls-3{stroke:#97bdc6;stroke-miterlimit:10;}.cls-4{fill:#98bdc7;}.cls-5{stroke-width:1.27px;}.cls-6{stroke-width:1.16px;}.cls-7{stroke-width:1.14px;}</style></defs><g id="fish"><g id="Layer_2" data-name="Layer 2"><path class="cls-1" d="M186.06,21.44c1.53-.66,3.19-1.53,4.68-2.26,2.76-1.35,2.74-1.71,2.82-1.84.41-.65-2.79-4.21-10.75-5-10.51-1.05-20.4-.49-28.93,6.11a24.4,24.4,0,0,0-2,1.68,26.69,26.69,0,0,0-4.69,6,29.32,29.32,0,0,0-2,4.2,34.61,34.61,0,0,0-2.19,12.41c0,.79,0,1.55.08,2.3h0c1.53,22,24,25.37,27.74,26.49,2.31.71,10.33,2.78,11.93,3.44A49.73,49.73,0,0,1,191,79c.71.48,1.45.94,2.2,1.37.36.2.63.61,1,.65.16,0,.4,0,.45-.2a31.68,31.68,0,0,0-1-3.5,32.45,32.45,0,0,1-1.11-18.62c.33-1.26.73-2.59,1.17-3.82.1-.27.64-1.3.13-1.49-.18-.07-3.21,4.89-6,7.6-1.63,1.59-2.84,3.67-10.6,3.49a15.93,15.93,0,0,1-10.55-3.79" transform="translate(-14.97 -6.48)"/><path class="cls-1" d="M186,21.46c-.32.22-2.7,1.29-2.54,1.84.22.74,2.35.44,2.65.44,1.24,0,3.25-.26,4.42.19s1,1.24.16,1.84c-2.41,1.64-5.85,2.45-8.55,3.71-2.27,1.06-4.43,2.31-6.62,3.49-4.43,2.38-16.78,7.21-12.83,20.93" transform="translate(-14.97 -6.48)"/></g><g id="Layer_3" data-name="Layer 3"><path class="cls-1" d="M143.26,45h-.13c-1.76-.07-3.3-1.77-4.23-3.12a33.71,33.71,0,0,1-3.35-7.15c-.19-.47-.38-.95-.59-1.43a19.93,19.93,0,0,0-1.14-2.08c-.18-.31-.36-.63-.52-.95a21.84,21.84,0,0,0-2-3.27,6.64,6.64,0,0,0-.9-1c-.1-.09-.29-.1-.34-.22a.21.21,0,0,1,.06-.18,6,6,0,0,1,1.52-1,14.62,14.62,0,0,1,5.51-1.85c5-.63,10.13-.28,14.69-2.73" transform="translate(-14.97 -6.48)"/><path class="cls-1" d="M134,31.1c3.08-5.64,12.07-5.55,12.76-5.11" transform="translate(-14.97 -6.48)"/><path class="cls-1" d="M135.53,34.77a7.92,7.92,0,0,1,2.36-2.16,12,12,0,0,1,7.4-2.32" transform="translate(-14.97 -6.48)"/><path class="cls-1" d="M137.21,38.83c.68-.54,1-.77,1.38-1a12.12,12.12,0,0,1,5.11-2.15" transform="translate(-14.97 -6.48)"/><path class="cls-1" d="M161.83,33.36c-3,1.84-2.75,4.4-5.84,3a4.64,4.64,0,0,1-1.56-1.66.37.37,0,0,0-.15-.06c-.71-.23-3.51-.77-3.67-1.76-.11-.72.62-1,1.2-1.19A35.25,35.25,0,0,1,163.25,31a12.2,12.2,0,0,1,1.91.39,2.92,2.92,0,0,1,.69.33C166.07,31.88,162.54,32.91,161.83,33.36Z" transform="translate(-14.97 -6.48)"/><path class="cls-1" d="M154.28,34.65a6.06,6.06,0,0,1,1.08-1.18,10.24,10.24,0,0,1,5.38-1.79,42.3,42.3,0,0,1,4.36-.09h.14" transform="translate(-14.97 -6.48)"/><path class="cls-1" d="M170.91,56.84a5.74,5.74,0,0,1-.83,1.44,6.49,6.49,0,0,1-3.34,2.42,5.08,5.08,0,0,1-2.89.07,4.2,4.2,0,0,1-1.49-.71,7.73,7.73,0,0,0,1.18-.6,8.45,8.45,0,0,0,1.29-.93,14.12,14.12,0,0,0,3.3-4.29,68.62,68.62,0,0,0,2.37-6.58,1.11,1.11,0,0,0,0,.19c0,.32,0,.63,0,1a25.58,25.58,0,0,0,.24,2.9C171,53.15,171.35,55.44,170.91,56.84Z" transform="translate(-14.97 -6.48)"/><path class="cls-1" d="M161.83,59.42l0-.06" transform="translate(-14.97 -6.48)"/><path class="cls-1" d="M170.5,47.63v0a68.62,68.62,0,0,1-2.37,6.58,14.12,14.12,0,0,1-3.3,4.29,8.45,8.45,0,0,1-1.29.93,7.73,7.73,0,0,1-1.18.6,2,2,0,0,1-.58-.69h0a3.93,3.93,0,0,1-.47-2.4,4.88,4.88,0,0,1,1.38-3.06,16.2,16.2,0,0,1,3.39-2.34,23.25,23.25,0,0,0,2.42-1.68,7.54,7.54,0,0,0,1.64-1.79,4.94,4.94,0,0,1,.37-.8C170.62,47.22,170.51,47.52,170.5,47.63Z" transform="translate(-14.97 -6.48)"/><path class="cls-1" d="M170.53,47.57l0,.09" transform="translate(-14.97 -6.48)"/><path class="cls-1" d="M162.36,60.06" transform="translate(-14.97 -6.48)"/><path class="cls-1" d="M169.94,20.07c-.28,1.66-1.59,8.89,3.69,13.87" transform="translate(-14.97 -6.48)"/><ellipse class="cls-1" cx="145.85" cy="15.77" rx="0.97" ry="0.93"/><path class="cls-1" d="M153.54,26.58a.92.92,0,1,1-.92-1A1,1,0,0,1,153.54,26.58Z" transform="translate(-14.97 -6.48)"/><path class="cls-1" d="M154.89,42.82a1,1,0,1,1-2,0,1,1,0,0,1,2,0Z" transform="translate(-14.97 -6.48)"/><path class="cls-1" d="M149.27,41.94a.95.95,0,1,1-.94-.95A.95.95,0,0,1,149.27,41.94Z" transform="translate(-14.97 -6.48)"/><path class="cls-1" d="M151.31,52.42a1,1,0,0,1-2,0,1,1,0,0,1,2,0Z" transform="translate(-14.97 -6.48)"/><path class="cls-1" d="M157.28,59.11a.93.93,0,1,1-.93-.92A.93.93,0,0,1,157.28,59.11Z" transform="translate(-14.97 -6.48)"/><ellipse class="cls-1" cx="162" cy="9.92" rx="1.42" ry="1.35"/><path class="cls-1" d="M198.16,17.43a.68.68,0,0,1,.68-.66c.38,0,.49.31.49.67s-.11.64-.49.64A.67.67,0,0,1,198.16,17.43Z" transform="translate(-14.97 -6.48)"/><path class="cls-1" d="M199.35,17.3c0-.36,1-.65,2.15-.65s2.14.29,2.14.65-1,.66-2.14.66S199.35,17.66,199.35,17.3Z" transform="translate(-14.97 -6.48)"/><path class="cls-1" d="M201.17,16.53a8.18,8.18,0,0,1,1.76-4.64,7.75,7.75,0,0,1,1.38-1.64,12.68,12.68,0,0,1,1.4-1s.36-.25.43-.22.14.57.14.66a8.51,8.51,0,0,1,0,1.82A7.32,7.32,0,0,1,203.57,16a6.6,6.6,0,0,1-1.5.7" transform="translate(-14.97 -6.48)"/><path class="cls-1" d="M200.12,16.52c0-.38-.08-4.61,1.91-5,.14,0,.41.81.25,1.36" transform="translate(-14.97 -6.48)"/></g><path class="cls-1" d="M181.15,65.9s-2.12,2.46-.33,6.32" transform="translate(-14.97 -6.48)"/></g><g id="fish_text" data-name="fish text"><path class="cls-2" d="M94.24,84.6a35.32,35.32,0,0,0,9.52-6.36,8.29,8.29,0,0,0,2.57-4.53,4.75,4.75,0,0,0-1.51-4.43,4.27,4.27,0,0,0-4.08-.83,4.32,4.32,0,0,0-2.55,3.26A21,21,0,0,0,98,76.84c.07,2.14.2,4.29.39,6.43a114.11,114.11,0,0,0,2.17,14.24.65.65,0,0,0,1.18.16c3.53-5.18,1.93-12.56-3.08-16.16l-.32,1.21a9.22,9.22,0,0,0,7-3.63,15.62,15.62,0,0,0,2.88-8.38c.07-.74-1.09-.86-1.28-.17a15.63,15.63,0,0,0,.93,10.87,2.07,2.07,0,0,0,1.61,1.28,1.85,1.85,0,0,0,1.68-1.09,23.25,23.25,0,0,0,2-5.57l-1.28-.17a14.31,14.31,0,0,0,1.06,6.75.67.67,0,0,0,1.09.28,10.86,10.86,0,0,0,3.84-7.3l-1.28.17q.81,5.05,1.38,10.14a22.13,22.13,0,0,1,.35,4.73c-.12,1.21-.94,2.71-2.35,2.62-1.13-.08-1.69-1.24-1.85-2.22a6.4,6.4,0,0,1,.5-3.23,18.78,18.78,0,0,1,3.84-5.55,31.66,31.66,0,0,0,4.86-6.38c.37-.75-.75-1.4-1.13-.66-2.39,4.74-7.6,7.77-9.08,13-.61,2.15-.44,5.51,2.19,6.23A3.37,3.37,0,0,0,118.78,93c1-1.41.83-3.23.67-4.85q-.67-6.37-1.68-12.7c-.12-.78-1.21-.5-1.27.17A9.57,9.57,0,0,1,113,82l1.08.29a13.48,13.48,0,0,1-1-6.4c.07-.73-1.1-.87-1.27-.17a30,30,0,0,1-1.52,4.52c-.14.34-.47,1.44-1,1.1s-.69-1.26-.87-1.77a14.83,14.83,0,0,1-.3-8.65l-1.28-.18a14.52,14.52,0,0,1-2.48,7.45,8,8,0,0,1-6,3.26A.65.65,0,0,0,98,82.63,10.71,10.71,0,0,1,100.62,97l1.19.16a112.06,112.06,0,0,1-2.55-22.28A8.42,8.42,0,0,1,99.81,71a2.5,2.5,0,0,1,3.13-1.28,3.23,3.23,0,0,1,2.16,3.25,6.39,6.39,0,0,1-2,4.16,33.1,33.1,0,0,1-9.47,6.38c-.76.36-.1,1.48.65,1.12Z" transform="translate(-14.97 -6.48)"/><path class="cls-2" d="M125.25,82a23,23,0,0,0,7.39-6.22,8.06,8.06,0,0,0,2.06-4.41,3.33,3.33,0,0,0-2-3.24,3.5,3.5,0,0,0-3.8,1.33c-1,1.33-1.15,3.12-1.3,4.72a37.89,37.89,0,0,0,.56,10.47,38.8,38.8,0,0,0,4,11.13.66.66,0,0,0,1.13,0A13.53,13.53,0,0,0,129,79.16l-.66,1.13a4.7,4.7,0,0,0,4.77-.33,10.45,10.45,0,0,0,3.31-4.26l-1.21-.33a17.84,17.84,0,0,0,.12,4.73c.16,1,.55,2.71,2,2.47a2.35,2.35,0,0,0,1.36-1.06,14.19,14.19,0,0,0,1.15-1.71,14.53,14.53,0,0,0,1.56-4.06l-1.19.16a20.38,20.38,0,0,1,2.45,6.81l.62-.83-5.78-.58v1.3a12.15,12.15,0,0,0,8.37-4.39,7.43,7.43,0,0,0,.21-8.78.66.66,0,0,0-1.21.33A59.38,59.38,0,0,0,146,82.51c.15.77,1.2.5,1.27-.17a10.49,10.49,0,0,1,2.66-5.89l-1.09-.28,1.58,5.29a.66.66,0,0,0,1,.38,7.3,7.3,0,0,0,3.08-6.24.65.65,0,0,0-1.3,0l.19,7a.65.65,0,0,0,1.3,0l-.19-7h-1.3a6,6,0,0,1-2.44,5.12l1,.39-1.57-5.29a.66.66,0,0,0-1.09-.29,12,12,0,0,0-3,6.81l1.28-.18a58,58,0,0,1-1.16-12.4l-1.21.33a6.2,6.2,0,0,1-.21,7.46,10.81,10.81,0,0,1-7.25,3.75.65.65,0,0,0,0,1.3l5.78.58c.46,0,.69-.45.63-.82a21.36,21.36,0,0,0-2.57-7.12.66.66,0,0,0-1.19.16,12.16,12.16,0,0,1-2.75,5.66c-.38.38-.49.06-.61-.34a10.37,10.37,0,0,1-.29-1.84,18.71,18.71,0,0,1,0-3.51c.07-.65-.93-.88-1.21-.33a10.55,10.55,0,0,1-2.53,3.58,3.53,3.53,0,0,1-3.77.54.65.65,0,0,0-.66,1.13,12.17,12.17,0,0,1,3.85,14.82h1.13a37,37,0,0,1-4.57-17.42,35.62,35.62,0,0,1,.25-4.5c.15-1.35.44-3,1.75-3.66a1.77,1.77,0,0,1,2.66,1.32c.26,1.44-.81,2.86-1.61,3.94a21.63,21.63,0,0,1-7.16,6.08c-.74.4-.09,1.52.65,1.12Z" transform="translate(-14.97 -6.48)"/><path class="cls-2" d="M155.4,77.12l.56,5.6a.65.65,0,0,0,1.3,0,11.06,11.06,0,0,1,1.51-4.91l-1.19-.16a15,15,0,0,0,1.76,4.86.67.67,0,0,0,.89.24,13.82,13.82,0,0,0,5.27-4.25,3.65,3.65,0,0,0,.83-1.38,1.07,1.07,0,0,0-.76-1,2.57,2.57,0,0,0-2.4.84,7.89,7.89,0,0,0-2,2.78c-.35.81-.83,2.15.28,2.59s1.93-.47,2.61-1.07L165.51,80l.71-.62c.28-.24.49-.56.77-.21a12,12,0,0,1,.88,1.62c.32.63.64,1.27.92,1.92A17.19,17.19,0,0,1,170,86.3a9.42,9.42,0,0,1-.85,6.41A6.78,6.78,0,0,1,167,95.05a3.44,3.44,0,0,1-3.11.61c-1.06-.48-1.22-1.81-1.17-2.83a8,8,0,0,1,.94-3.26,27.8,27.8,0,0,1,5.16-6.29l3.4-3.49c.83-.86,2.07-1.94,1.38-3.24-.4-.74-1.52-.08-1.13.65.21.4-.51,1-.75,1.23l-1.36,1.4-2.55,2.62a41.49,41.49,0,0,0-4.22,4.77,10.9,10.9,0,0,0-2.16,5.41c-.13,1.81.49,3.92,2.46,4.39s3.75-.59,5-1.87a9.18,9.18,0,0,0,2.4-4.81,12.78,12.78,0,0,0-.49-6,23.83,23.83,0,0,0-1.27-3.15A21.73,21.73,0,0,0,168,78.35c-.7-1-1.72-.78-2.55-.08-.54.46-1.06.94-1.59,1.41a10.74,10.74,0,0,1-1.41,1.21,1.12,1.12,0,0,1-.49.18s.06.05.13-.06a2.35,2.35,0,0,0,.14-.45,6.75,6.75,0,0,1,.74-1.47,6.89,6.89,0,0,1,1.1-1.25,2.56,2.56,0,0,1,.56-.42c.09,0,.18,0,.26-.09s.24.1.16-.12l.06-.5a12.5,12.5,0,0,1-5.56,4.91l.89.24a13.66,13.66,0,0,1-1.62-4.56.66.66,0,0,0-1.19-.15A12.44,12.44,0,0,0,156,82.72h1.3l-.56-5.6c-.08-.82-1.38-.83-1.3,0Z" transform="translate(-14.97 -6.48)"/><path class="cls-2" d="M153.89,73.48a.65.65,0,0,0,0-1.3.65.65,0,0,0,0,1.3Z" transform="translate(-14.97 -6.48)"/><path class="cls-2" d="M136.12,72.33a.7.7,0,0,0,.38,0,.68.68,0,0,0,.32-.18h0a1,1,0,0,0,.11-.15.87.87,0,0,0,.07-.17h0a1,1,0,0,0,0-.42v0a.87.87,0,0,0-.07-.17v0s-.07-.1-.11-.14a.68.68,0,0,0-.32-.18.74.74,0,0,0-.39,0,.65.65,0,0,0-.22.11.49.49,0,0,0-.16.19.41.41,0,0,0-.08.24.46.46,0,0,0,0,.26l.07.15a.59.59,0,0,0,.23.24l.15.06a.69.69,0,0,0,.35,0h0l-.17,0h0l-.17,0h0l-.15-.06h0l-.13-.1h0l-.1-.13s0,0,0,0l-.06-.16a.06.06,0,0,0,0,0l0-.18v.05l0-.17a0,0,0,0,0,0,0l.06-.15v0l.1-.13h0l.13-.1h0l.16-.07h0l.17,0h0l.17,0h0a.46.46,0,0,0-.26,0,.48.48,0,0,0-.24.07.52.52,0,0,0-.19.17.57.57,0,0,0-.11.22l0,.17a.74.74,0,0,0,.09.33l.11.13a.55.55,0,0,0,.28.17Z" transform="translate(-14.97 -6.48)"/></g><g id="quickdraw"><path class="cls-3" d="M411,21.55,397.11,34.66s-2.12,2.55-5.7.36l2.93-3.1.33-.34-3.95-4.18-.3-.31-3.12,3a11.05,11.05,0,0,1-.88-6.3c.05-.35,5.41-9.64,5.4-9.65a2.61,2.61,0,0,1,0-3.07,1.64,1.64,0,0,1,.41-.5c.65-.53,2.52-1.41,6.19-.94,0,0,7.84.33,11.69,5.12C410.11,14.76,413.06,18.87,411,21.55Z" transform="translate(-14.97 -6.48)"/><path class="cls-3" d="M391.77,14.25a1.29,1.29,0,0,0,.07-.21,7.59,7.59,0,0,1,1.38-2.47,9.6,9.6,0,0,1,2.15,1.32.7.7,0,0,1,.2.92c-1.35,2.35-6.5,11.34-6.5,11.35a12.15,12.15,0,0,1-1.92-1.06.73.73,0,0,1-.34-1Z" transform="translate(-14.97 -6.48)"/><path class="cls-3" d="M407.68,19.3,394.34,31.92l.33-.34-3.95-4.18S389,26,389.39,24.57l6.26-11h0l.16-.27c.24-.11,8.06.21,11.44,3.52C407.25,16.77,408.7,18,407.68,19.3Z" transform="translate(-14.97 -6.48)"/><path class="cls-3" d="M394.67,31.58l-.33.34L391.41,35l-9.84,10.39s-8.46,11-14.94,15.05l-4.86-4.88a99.65,99.65,0,0,1,14.56-15c.54-.43,7-6.62,11-10.45l3.12-3,.3.31Z" transform="translate(-14.97 -6.48)"/><path class="cls-3" d="M366.68,62.28a.08.08,0,0,1-.1,0,1.94,1.94,0,0,0-.59-.17,2.48,2.48,0,0,0-1.49.25h0l-2,1.87.11-.11-1-.09h0l-.68-.16a.54.54,0,0,1-.47-.46l-.11-.61-.05-.31a.64.64,0,0,0-.16-.33.48.48,0,0,0-.2-.15.39.39,0,0,0-.15-.06l-.34-.11-.64-.19c-.44-.16-.62-1.38-.62-1.38s.08-.13.13-.17L360,58.54s0,0,0,0a2.4,2.4,0,0,0,.16-.79,3.39,3.39,0,0,0,0-.77,3.91,3.91,0,0,0-.25-.86.06.06,0,0,1,0-.09,1.92,1.92,0,0,1,1.79-.36l0,0,4.84,4.86A1.28,1.28,0,0,1,366.68,62.28Z" transform="translate(-14.97 -6.48)"/><path class="cls-3" d="M354.62,56.18a6.81,6.81,0,0,1,5.51,0,14,14,0,0,1,.06,1.55,2.88,2.88,0,0,1-.17.81l-1.79,1.62a.13.13,0,0,0,0,.1" transform="translate(-14.97 -6.48)"/><path class="cls-3" d="M365.16,67.05,351.9,80.85c-2.7,2-6.35-1.17-6.35-1.17-4.75-3.9-4.93-11.32-4.93-11.32-.3-4.11.26-5.52.76-6.33a2.1,2.1,0,0,1,.89-.78c1.49-.71,2.32-.1,2.51.14l-.49.26-1,.55c-.17.09-.39.45-.28.61l1,1.67a6.47,6.47,0,0,0-.22,1s0,.14,0,.37v.12c0,1.66.44,7.26,2.78,10.42.16.21.33.41.5.6l.06.06h0l.09.09a.17.17,0,0,0,.06.06,3.32,3.32,0,0,0,.36.3,2.08,2.08,0,0,0,.36.2l.23.08a.32.32,0,0,0,.09,0l.12,0h.28a1.54,1.54,0,0,0,.3,0,2,2,0,0,0,.32-.11l.16-.1a1,1,0,0,0,.16-.1h0l12.76-13.2,2-1.87h0a3.17,3.17,0,0,1,1.79-.07A3.67,3.67,0,0,1,365.16,67.05Z" transform="translate(-14.97 -6.48)"/><path class="cls-3" d="M346.6,76.34c-2.34-3.16-2.77-8.76-2.78-10.42C343.93,67.61,344.41,73.29,346.6,76.34Z" transform="translate(-14.97 -6.48)"/><path class="cls-3" d="M344.29,61.65" transform="translate(-14.97 -6.48)"/><path class="cls-3" d="M344.78,61.39c2.9-1.55,8.42-4.45,9.75-5.15a.43.43,0,0,1,.52.1l1.27,1.49a.35.35,0,0,1-.09.54l-.32.19-10.85,6.21a1.12,1.12,0,0,1-.93-.12l-.11-.17-1-1.67c-.11-.16.11-.52.28-.61l1-.55h0c.11,0,.45-.23.49-.24" transform="translate(-14.97 -6.48)"/><path class="cls-3" d="M355.21,59s2.69,0,3,.92" transform="translate(-14.97 -6.48)"/></g><g id="climbing"><path class="cls-2" d="M395.81,46.23a17.72,17.72,0,0,0-5.94,7.94c-.35.92-.69,2,.08,2.86,1.36,1.41,3.61.06,4.9-.73a34.68,34.68,0,0,0,5.07-3.71A23.69,23.69,0,0,0,407,42.26a6.46,6.46,0,0,0,.49-2.84A1.57,1.57,0,0,0,405.54,38c-1.88.37-3,2.34-3.39,4a24.68,24.68,0,0,0-.36,7.86,36.85,36.85,0,0,0,1.69,8.58c.13.42.76.7,1.08.29A28.84,28.84,0,0,0,410,47.49l-1.28-.18a31.8,31.8,0,0,0,.32,5.69c.18,1.19.33,3.65,2,3.75.89,0,1.09-1,1.36-1.64a24.21,24.21,0,0,0,.9-2.6,26.1,26.1,0,0,0,.95-5.48H413a71.15,71.15,0,0,0,.7,10.72c.1.72,1.32.55,1.27-.17a16.77,16.77,0,0,1,3.26-11L417,46.41a53.21,53.21,0,0,1,1.08,8.53c0,.69,1.17.94,1.27.18A19.07,19.07,0,0,1,423,46.34L421.76,46l.49,9.42c.05.83,1.35.83,1.3,0L423.06,46a.66.66,0,0,0-1.21-.33,19.93,19.93,0,0,0-3.74,9.09l1.28.17a55.45,55.45,0,0,0-1.13-8.88c-.13-.6-.89-.56-1.19-.15a18,18,0,0,0-3.43,11.67l1.28-.18A69.11,69.11,0,0,1,414.27,47c0-.84-1.24-.82-1.3,0a24.7,24.7,0,0,1-2.25,8.73l.56-.32c-.49.05-.61-.89-.68-1.24-.15-.77-.28-1.54-.37-2.32a31.7,31.7,0,0,1-.17-4.57.65.65,0,0,0-1.27-.17,27.42,27.42,0,0,1-5.15,10.72l1.09.28A35.76,35.76,0,0,1,403,45.27a9.36,9.36,0,0,1,1.15-4.73c.28-.43,1.17-1.46,1.79-1.26s0,1.73-.09,2.1a21.07,21.07,0,0,1-5.43,8.91,29.18,29.18,0,0,1-4,3.42c-.72.52-1.47,1-2.23,1.47a7.92,7.92,0,0,1-2.14,1.06,1.62,1.62,0,0,1-1,0c-.42-.23-.24-.79-.12-1.15a14.56,14.56,0,0,1,1.35-3,16.44,16.44,0,0,1,4.19-4.79c.66-.51,0-1.64-.65-1.12Z" transform="translate(-14.97 -6.48)"/><path class="cls-2" d="M423.65,42.13l1.6,15h1.3a13.64,13.64,0,0,1,.59-6.08c.41-1.19,1.53-4.23,3.31-3.2s1,3.29,0,4.57a16.43,16.43,0,0,1-4.61,4l.79,1c3-3.39,9-5.14,9.12-10.5a.66.66,0,0,0-1.28-.18,13.32,13.32,0,0,0-.63,4.77c.06,1.09.11,3.16,1.66,3.14,1.38,0,2-1.69,2.37-2.75a19,19,0,0,0,1-4.78l-1.28.17a51,51,0,0,1,1.13,7.16c.06.67,1.16.95,1.28.18a12.57,12.57,0,0,1,2.64-6.16l-1.09-.29c.35,1.84.67,3.69,1,5.52.12.64.39,1.28,1.11,1.38a3.71,3.71,0,0,0,1.93-.62,11.56,11.56,0,0,0,5.47-6,.66.66,0,0,0-.63-.82A4.26,4.26,0,0,0,446.57,50a1.81,1.81,0,0,0,.42,2.27A21.83,21.83,0,0,1,448.78,54a11.14,11.14,0,0,1,2.41,9.69c-.39,1.6-1.34,3.49-3.21,3.6a1.93,1.93,0,0,1-1.94-1,4.49,4.49,0,0,1-.13-2.57c.53-3.08,2.42-5.72,4.1-8.28,1.86-2.87,3.72-6,3.53-9.53,0-.83-1.34-.84-1.3,0,.18,3.26-1.55,6.09-3.26,8.73s-3.72,5.44-4.31,8.66c-.3,1.67-.31,3.75,1.28,4.8a3.87,3.87,0,0,0,4.44-.42,7.4,7.4,0,0,0,2.28-4.9,12.21,12.21,0,0,0-.48-5.2,12.42,12.42,0,0,0-3.06-5.09c-.34-.34-.72-.64-1.1-1-.18-.15-.37-.29-.39-.54a1.38,1.38,0,0,1,.3-.74,3,3,0,0,1,2.56-1.31l-.63-.83a10.18,10.18,0,0,1-4.3,5,5.17,5.17,0,0,1-1.44.69c-.27.07-.2,0-.26-.36s-.14-.74-.2-1.11l-.82-4.41a.66.66,0,0,0-1.09-.29,13.88,13.88,0,0,0-3,6.73l1.28.17a56,56,0,0,0-1.17-7.5c-.18-.76-1.22-.52-1.28.17a17.32,17.32,0,0,1-.63,3.36,16.24,16.24,0,0,1-.59,1.7c-.12.32-.38,1-.77,1.12s-.23-.08-.29-.32a5.16,5.16,0,0,1-.1-.67,11.66,11.66,0,0,1,.52-5.22l-1.28-.17c0,2.21-1.64,4-3.29,5.28-1.82,1.43-3.89,2.55-5.45,4.3-.48.53.13,1.42.79,1A19.33,19.33,0,0,0,431,53.77c1.15-1.33,2.21-3.15,1.66-5a3.15,3.15,0,0,0-3.52-2.39c-1.76.42-2.62,2.45-3.17,4a14.4,14.4,0,0,0-.75,6.73c.1.82,1.39.84,1.3,0l-1.6-15c-.09-.82-1.39-.83-1.3,0Z" transform="translate(-14.97 -6.48)"/><path class="cls-2" d="M432.7,45a.65.65,0,0,0,0-1.3.65.65,0,0,0,0,1.3Z" transform="translate(-14.97 -6.48)"/><path class="cls-2" d="M411,43.43a.65.65,0,0,0,0-1.3.65.65,0,0,0,0,1.3Z" transform="translate(-14.97 -6.48)"/></g><g id="needle"><path class="cls-1" d="M42.87,79.06l55.5-65c3.55-3.33,6.41-.52,6.41-.52,1.55,1.55,1,4.32-.41,5.73Z" transform="translate(-14.97 -6.48)"/><line class="cls-1" x1="86.28" y1="10.02" x2="81.98" y2="14.63"/><path class="cls-4" d="M96.27,6.91a22.43,22.43,0,0,0-.49,8.71,19.59,19.59,0,0,0,.41,2.16c.12.49.35,1,.93,1.08,1.29.12.77-2.07-.27-1.39-.64.42,0,1.46.61,1l.05,0-.46.06,0,0-.36-.28v-.33l.36-.27c.28.18.38.18.29,0s-.05-.2-.08-.3-.11-.48-.16-.72Q97,16,97,15.41a21.22,21.22,0,0,1-.2-2.76,21.65,21.65,0,0,1,.67-5.43.6.6,0,0,0-1.15-.31Z" transform="translate(-14.97 -6.48)"/><path class="cls-4" d="M98.6,22.43c2,6.07,4.12,13.1.71,19.08-2.92,5.13-8.61,8.43-13.87,10.72C74.26,57.1,61.83,57.79,50,59.88c-6,1.06-12.61,2.67-16.71,7.6-.49.59.36,1.44.85.85,3.74-4.5,9.67-6.09,15.19-7.12,6.13-1.13,12.32-1.85,18.46-2.9a80.65,80.65,0,0,0,17.66-4.77c5.34-2.25,10.91-5.45,14.26-10.33a16,16,0,0,0,2.61-10,43.42,43.42,0,0,0-2.53-11.06c-.23-.73-1.39-.42-1.15.32Z" transform="translate(-14.97 -6.48)"/></g><g id="Layer_7" data-name="Layer 7"><path class="cls-1" d="M241,27.09c-.12,0-.19.13-.19.18l.06,1.89a1.45,1.45,0,0,0,1.37,1.36c1.16.11,2.65.54,2.65,2.07l2.93,26a6.47,6.47,0,0,0,6.54,5.55l22.9.17" transform="translate(-14.97 -6.48)"/><path class="cls-1" d="M241,27.07,308.85,27a.65.65,0,0,1,.67.65l0,1.43a1.45,1.45,0,0,1-1.37,1.35c-1.16.11-2.65.55-2.65,2.07l-2.93,26A6.48,6.48,0,0,1,296,64.07l-22.9.16" transform="translate(-14.97 -6.48)"/><path class="cls-1" d="M244.75,24.66h60.32a.75.75,0,0,0,.75-.84l-.1-.92a.73.73,0,0,0-.33-.55c-3-2-28.5-17.55-61,.08a.77.77,0,0,0-.4.63l0,.8A.76.76,0,0,0,244.75,24.66Z" transform="translate(-14.97 -6.48)"/><path class="cls-5" d="M267.71,14.44c.08-.71.32-3.63.51-5.39a1.26,1.26,0,0,1,1.2-1.19h9" transform="translate(-14.97 -6.48)"/><path class="cls-5" d="M282.38,14.35c.07.62-.29-3.54-.48-5.3a1.27,1.27,0,0,0-1.2-1.19h-9" transform="translate(-14.97 -6.48)"/><path class="cls-6" d="M270.47,14.08s.18-1.95.3-3.06a.83.83,0,0,1,.8-.75h6" transform="translate(-14.97 -6.48)"/><path class="cls-7" d="M279.61,14.08s-.17-1.95-.29-3.06a.81.81,0,0,0-.77-.75h-5.77" transform="translate(-14.97 -6.48)"/><path class="cls-4" d="M284.57,63.43a13.51,13.51,0,0,1,4.1-14l-1-.59a4.45,4.45,0,0,0,0,3.27,2.57,2.57,0,0,0,2.06,1.32c2.17.09,2.71-3,2.77-4.59.09-2.28-.56-4.51-.71-6.77a14.61,14.61,0,0,1,.95-6.17,15.76,15.76,0,0,1,4.11-6l-.95-.72c-1.91,4.28,1.27,8.37,4.39,11a68,68,0,0,1,5.23,4.49,20.4,20.4,0,0,1,3.78,5.39,14.57,14.57,0,0,1,.52,11.93,13.29,13.29,0,0,1-8.6,7.71c-4.11,1.13-9,.36-12.09-2.7-.55-.55-1.4.3-.85.84a13.5,13.5,0,0,0,11,3.45,14.33,14.33,0,0,0,10.13-6.06,15.1,15.1,0,0,0,2.33-11.73,20.93,20.93,0,0,0-7.11-11.32,49.11,49.11,0,0,1-6-5.28c-1.61-1.9-2.8-4.69-1.71-7.13a.6.6,0,0,0-.94-.72,16.7,16.7,0,0,0-5.21,9.41,17.51,17.51,0,0,0,0,5.55c.28,2,.76,4.07.32,6.07-.17.79-.59,2.47-1.72,2s-.84-2-.57-3a.6.6,0,0,0-1-.58,14.7,14.7,0,0,0-4.41,15.13c.23.74,1.39.42,1.16-.32Z" transform="translate(-14.97 -6.48)"/></g><g id="cooking"><path class="cls-2" d="M236.74,65.6a13.48,13.48,0,0,0-2.6,5.43c-.36,1.66-.7,4.15,1.24,5a2.14,2.14,0,0,0,2.34-.53,11.65,11.65,0,0,0,1.81-2.27,4.17,4.17,0,0,0,.14-4.75c-1.45-1.9-3.95-1.14-5.79-.36a.65.65,0,0,0-.13,1c1.41,1.14,3.19.43,4.7-.11q2.91-1.05,5.73-2.31l-1-.57a60.76,60.76,0,0,0,1.72,8.57.66.66,0,0,0,1.19.16,25.61,25.61,0,0,0,3.54-7.6l-1.27-.18a14.53,14.53,0,0,0,1.37,8,.66.66,0,0,0,1,.13c4-3.42,4.1-8.88,3.9-13.73a.65.65,0,0,0-1.3,0,46.59,46.59,0,0,0,1.81,16.22.65.65,0,0,0,1.25-.35,45.75,45.75,0,0,1-1.76-15.87h-1.3c.19,4.52.24,9.62-3.52,12.81l1,.13a13.19,13.19,0,0,1-1.2-7.37c.09-.76-1.06-.83-1.28-.17A24.68,24.68,0,0,1,245,74.19l1.19.16a56.38,56.38,0,0,1-1.68-8.23.67.67,0,0,0-1-.56c-1.56.7-3.15,1.35-4.75,1.94-.73.27-1.45.55-2.2.76a2.22,2.22,0,0,1-1.9-.06l-.13,1c1.38-.59,3.72-1.36,4.4.58.57,1.63-.78,3.2-1.76,4.35-.24.29-.55.68-1,.72a1,1,0,0,1-.87-.55,4.35,4.35,0,0,1,0-2.74,12,12,0,0,1,2.31-5.06c.51-.65-.4-1.58-.92-.92Z" transform="translate(-14.97 -6.48)"/><path class="cls-2" d="M250.59,69.48l9.63-2.37a.65.65,0,0,0-.34-1.26l-9.64,2.38c-.81.2-.47,1.45.35,1.25Z" transform="translate(-14.97 -6.48)"/><path class="cls-2" d="M263.54,67.09a9.12,9.12,0,0,0-5.36,2.81c-.86.94-3,4-.87,4.82,1,.36,2-.43,2.68-1a13.26,13.26,0,0,0,2-2.21A12.53,12.53,0,0,0,264.09,66a11.78,11.78,0,0,0-.91-6.47c-.27-.61-1.23-.28-1.21.33q.09,4.13.59,8.22c.26,2.11.31,4.79,2,6.34.62.56,1.54-.36.92-.92a4.49,4.49,0,0,1-1.21-2.64c-.21-1.16-.35-2.33-.48-3.5-.29-2.49-.45-5-.51-7.5l-1.21.32a10.72,10.72,0,0,1-.21,8.85,11.49,11.49,0,0,1-2.78,3.71,3.26,3.26,0,0,1-1,.69c-.55.2-.35-.34-.22-.66a6.42,6.42,0,0,1,1.25-2,8,8,0,0,1,4.79-2.48c.82-.12.47-1.38-.35-1.25Z" transform="translate(-14.97 -6.48)"/><path class="cls-2" d="M267.73,66.69a16,16,0,0,0-.12,7,.65.65,0,0,0,.8.46,3.44,3.44,0,0,0,2.49-3.58,3.59,3.59,0,0,0-3.34-2.92v1.3a41.66,41.66,0,0,0,6.05-1.16l-.82-.62-.21,3.45c0,.58-.08,1.15-.11,1.73a2.13,2.13,0,0,0,.2,1.34c1,1.56,3.06-.17,3.86-1,1.05-1.13,1.64-2.74.54-4.05a4.75,4.75,0,0,0-4.14-1.34v1.3l2.75-.35L277,68l.72-.09a2.74,2.74,0,0,1,.64-.08c.13.05.17.79.2,1l.21,1.32.45,2.88,1.25-.35c-.81-3.2,2.81-5.26,5.09-6.57A.65.65,0,0,0,284.9,65c-2.86,1.65-6.67,4.16-5.68,8,.21.82,1.38.46,1.25-.35L280,69.32c-.13-.77-.06-2.11-.81-2.59A1.71,1.71,0,0,0,278,66.6l-1.68.21-3.35.42c-.81.1-.83,1.4,0,1.3a3.93,3.93,0,0,1,2.86.61c1,.74.53,1.8-.18,2.56a5.14,5.14,0,0,1-1.28,1.09c-.19.1-.48.25-.58.06s0-.77.05-1l.29-4.69a.65.65,0,0,0-.82-.63,39.71,39.71,0,0,1-5.71,1.11.65.65,0,0,0,0,1.3,2.26,2.26,0,0,1,2.05,1.79,2.13,2.13,0,0,1-1.55,2.16l.8.45A14.62,14.62,0,0,1,269,67c.2-.81-1.06-1.16-1.25-.34Z" transform="translate(-14.97 -6.48)"/><path class="cls-2" d="M264,75.94a23.7,23.7,0,0,0-6.14,9.21,1.76,1.76,0,0,0,.3,2,1.83,1.83,0,0,0,2.16-.19,58.81,58.81,0,0,0,4.87-3.6c1.82-1.47,3.56-3,5.24-4.67l-1.09-.63c-.41,2.16-.86,4.31-1.24,6.48-.14.75,0,1.6.79,1.88a2.21,2.21,0,0,0,1.91-.42,10.5,10.5,0,0,0,3.21-4.1c.69-1.48,1.17-3.33-.53-4.31s-3.7.15-5.1,1.35c-.51.44,0,1.24.64,1.09l9.28-2.43-.8-.8a25.55,25.55,0,0,0-1.86,8.88.66.66,0,0,0,1,.56,11.65,11.65,0,0,0,3.51-2.85c.83-1,2.16-2.69,1.83-4.09s-2.34-1.55-3.53-1.43c-1.45.14-2.93,1.13-2.83,2.74a.66.66,0,0,0,.65.65,15.82,15.82,0,0,0,12-6.5c.64-.89,1.58-2.19.89-3.31a1.87,1.87,0,0,0-2.37-.56,3.22,3.22,0,0,0-1.58,2.69c-.22,1.49-.39,3-.53,4.49a98.05,98.05,0,0,0-.42,10.28.65.65,0,0,0,1.3,0c0-2.49,0-5,.2-7.47a61.77,61.77,0,0,1,.77-7.32c.1-.53.52-2,1.37-1.53.68.35-.71,2-1,2.4a14.46,14.46,0,0,1-4.38,3.74A14.31,14.31,0,0,1,276.2,80l.65.65c-.08-1.27,1.41-1.5,2.37-1.46a2.36,2.36,0,0,1,1.23.23c.49.37,0,1.13-.25,1.53a10.52,10.52,0,0,1-4.28,4.21l1,.56a24.49,24.49,0,0,1,1.81-8.53c.2-.48-.36-.92-.8-.8l-9.28,2.42.63,1.09c.92-.78,2.76-2.19,3.86-.87.51.6.05,1.55-.23,2.17a11.07,11.07,0,0,1-1.24,2.09A7.82,7.82,0,0,1,270,85c-.12.08-.52.35-.7.28s.08-.83.12-1l1.1-5.75a.65.65,0,0,0-1.08-.64q-2.35,2.31-4.89,4.38c-.84.69-1.69,1.35-2.55,2A25.41,25.41,0,0,1,259.38,86c-.1.06-.37.25-.46.11s.1-.51.14-.63c.16-.47.37-.93.57-1.39A24.22,24.22,0,0,1,261,81.55a23.53,23.53,0,0,1,3.86-4.69c.61-.57-.31-1.49-.92-.92Z" transform="translate(-14.97 -6.48)"/><path class="cls-2" d="M291.61,77.44l-7.9,5.32a.65.65,0,0,0,.5,1.19c.53-.12,1,.31,1.34.64a11.39,11.39,0,0,0,1.35,1.15,4.05,4.05,0,0,0,3.48.34c2.74-.91,3.83-3.71,4.43-6.29l-1.27-.17L293,85.27c0,.6.73.81,1.11.46A12.55,12.55,0,0,0,298,79.11l-1.18.16A12.44,12.44,0,0,1,297.93,85c0,.72,1.14.9,1.28.17a18.3,18.3,0,0,1,2.09-5.78l-.89.23c.88.58.44,2.23.56,3.12a2.43,2.43,0,0,0,1.73,2.28c1.33.26,2.49-1,3.33-1.88a18.36,18.36,0,0,0,2.7-3.5.65.65,0,0,0-.56-1,5.4,5.4,0,0,0-5.32,3.44.67.67,0,0,0,.3.74,12.39,12.39,0,0,1,6.4,8.59,11.46,11.46,0,0,1-.19,5.46c-.52,1.8-1.64,3.81-3.56,4.4a3,3,0,0,1-4.1-2.3,11.21,11.21,0,0,1,1.06-5.54c1.38-3.34,3.77-6.18,6-9C311.36,81.32,314,78,315.25,74c.26-.8-1-1.14-1.26-.34C311.47,81.48,303.87,86.3,301.18,94c-.66,1.89-1.26,4.36-.48,6.3a4.29,4.29,0,0,0,4.73,2.43c4.45-.64,6-6.27,5.6-10.07a13.75,13.75,0,0,0-7.22-10.9l.3.73A4.06,4.06,0,0,1,308.17,80l-.56-1a17,17,0,0,1-2.27,3c-.47.49-2,2.35-2.72,1.57-.59-.63-.36-1.76-.39-2.52a2.93,2.93,0,0,0-1.16-2.54.66.66,0,0,0-.89.23A19.58,19.58,0,0,0,298,84.86l1.28.18a13.84,13.84,0,0,0-1.3-6.43.66.66,0,0,0-1.19.16,11.36,11.36,0,0,1-3.52,6l1.11.46.51-5.65c.06-.73-1.11-.88-1.28-.17-.54,2.27-1.51,5.18-4.2,5.55a3.26,3.26,0,0,1-2.76-1.21,3,3,0,0,0-2.73-1.1l.5,1.19,7.89-5.32c.69-.46,0-1.59-.65-1.12Z" transform="translate(-14.97 -6.48)"/><path class="cls-2" d="M293.47,76.41a.65.65,0,0,0,0-1.3.65.65,0,0,0,0,1.3Z" transform="translate(-14.97 -6.48)"/></g><g id="craft"><path class="cls-2" d="M21.89,39.93a1.43,1.43,0,0,0-.55-2,2.07,2.07,0,0,0-2.46.55,19.84,19.84,0,0,0-2.61,3.23c-.6.9-1.42,2.1-1.28,3.25.32,2.62,3.85.66,5-.17a15.17,15.17,0,0,0,4.46-6.09l-1.09-.15c.18,1.28,2.15,1.07,2.09,2.13A17.5,17.5,0,0,1,24.66,43a7.94,7.94,0,0,0-.2,2.33c0,.41.51.8.9.52l8.91-6.41a.6.6,0,0,0-.6-1,12.23,12.23,0,0,0-5.74,5.38c-.23.42.16,1.08.67.88A13.32,13.32,0,0,0,35.32,39l-1.1-.46L32.8,44.84a.6.6,0,0,0,.73.74A16.54,16.54,0,0,0,44.29,37.2c.83-1.72,1.07-4.25-.73-5.48-2-1.36-2.93,2.13-3.4,3.39-1.95,5.2-2.15,10.88-2,16.38,0,1.38.11,2.76.18,4.14a7.37,7.37,0,0,0,.6,3.19c.34.62,1,1.34,1.78,1.06s1.52-2,1.87-2.71a11.76,11.76,0,0,0-3.19-14.45l-.31,1.11a11.68,11.68,0,0,0,9.8-8.4c.17-.63-.83-1.1-1.1-.46a16.4,16.4,0,0,0-1.1,9.53c.09.49.69.52,1,.26A14.86,14.86,0,0,0,52.13,39L51,38.81l1.46,4.84.58-.76a47.56,47.56,0,0,1-5.19-.55v1.15a39.14,39.14,0,0,1,9.24-.32c1.46.08,2.92.17,4.38.21,1.06,0,2.34.24,3.26-.41.63-.44,0-1.48-.6-1-.95.67-3,.24-4.12.19-1.46-.07-2.92-.17-4.37-.23a36.09,36.09,0,0,0-8.11.44.6.6,0,0,0,0,1.15,51,51,0,0,0,5.51.6.61.61,0,0,0,.58-.76l-1.46-4.84c-.14-.44-.89-.65-1.1-.14a14.1,14.1,0,0,1-4.22,5.56l1,.27a15,15,0,0,1,1-8.61l-1.1-.46a10.42,10.42,0,0,1-8.64,7.52.61.61,0,0,0-.3,1.12,10.26,10.26,0,0,1,3.53,10.58,12.26,12.26,0,0,1-1,2.8c-.14.26-.49,1.2-.75,1.27-.68.18-.81-.91-.88-1.33a46.75,46.75,0,0,1-.3-5.8,49.86,49.86,0,0,1,.8-12,26.16,26.16,0,0,1,1.91-5.72c.22-.45.38-1.12,1-.71a2.09,2.09,0,0,1,.61,1.26,4.7,4.7,0,0,1-.81,3.14,15.68,15.68,0,0,1-9.67,7.13l.73.74,1.43-6.33a.6.6,0,0,0-1.1-.46,12,12,0,0,1-6,5.15l.67.88a11.22,11.22,0,0,1,5.31-4.94l-.6-1-8.91,6.41.9.52a8,8,0,0,1,.39-2.87,8.17,8.17,0,0,0,.7-2.27,1.28,1.28,0,0,0-.54-1.08c-.44-.32-1.66-.32-1.74-.89a.6.6,0,0,0-1.09-.14c-1.09,2.43-2.57,4.88-4.92,6.26a8.07,8.07,0,0,1-.89.43A4.49,4.49,0,0,1,17,45l-.76-.56c-.12-.46.74-1.58,1-2a22.47,22.47,0,0,1,1.64-2.14c.21-.26.42-.52.65-.76l.25-.26c.32-.44.7-.44,1.13,0-.38.67.66,1.28,1,.6Z" transform="translate(-14.97 -6.48)"/><path class="cls-2" d="M44.81,38.61l6.13-.5a.6.6,0,0,0,0-1.2l-6.13.5a.62.62,0,0,0-.6.6.6.6,0,0,0,.6.6Z" transform="translate(-14.97 -6.48)"/></g></svg>