<?xml version="1.0" encoding="utf-8"?>
<!-- Generator: Adobe Illustrator 24.1.2, SVG Export Plug-In . SVG Version: 6.00 Build 0)  -->
<svg version="1.1" id="Layer_1" xmlns="http://www.w3.org/2000/svg" xmlns:xlink="http://www.w3.org/1999/xlink" x="0px" y="0px"
	 viewBox="0 0 452 202" style="enable-background:new 0 0 452 202;" xml:space="preserve">
<style type="text/css">
	.st0{clip-path:url(#SVGID_2_);}
	.st1{fill:#5B606E;}
	.st2{fill:#FFFFFF;}
</style>
<g>
	<defs>
		<rect id="SVGID_1_" x="0.8" width="451" height="201"/>
	</defs>
	<clipPath id="SVGID_2_">
		<use xlink:href="#SVGID_1_"  style="overflow:visible;"/>
	</clipPath>
	<g class="st0">
		<path class="st1" d="M230.4,111.1h7.7l-0.4,28.4H173v-12.3l45.5-52.4h-31.6c-2.9,3.2-6.8,7.5-6.8,7.5H173V62.5h64.7v12.3
			l-45.6,52.4h23.2L230.4,111.1z"/>
		<path class="st1" d="M281.1,78.8c-2.2,2-4.3,4-6.2,5.8v54.3h-16.3l-0.3-55.4l-11.6-10.1c0,0,8.5-8.9,11.6-11.4h0.4h16.2l-0.1,12.2
			L281.1,78.8z"/>
		<path class="st1" d="M315.9,75.5c0,4-1.2,8.5-4.8,12.6c-2,2.3-4.8,3.8-7.8,4.3c-4.3,0.8-10.6,0.8-12.3-5.3
			c-0.4-1.5-0.4-3.1-0.2-4.7c0.5-3,1.8-8.6,6.4-13.1c-4.9,1.2-11.3,5.3-16.3,9.7l-6.3-4.8c2.2-3.5,10.1-8.4,14.5-10.9
			c3-1.7,6.4-2.8,9.8-3.1c0.5,0,0.9-0.1,1.4-0.1C309,59.9,316,66.9,315.9,75.5z"/>
		<path class="st1" d="M404,61.8v11.7h-8.8c-2.4,6.7-13.2,37.8-22.2,63.7c-4.9,14-9.2,26.6-11.4,33c-1.1,3.1-2.4,6-4,8.9
			c-3.1,5.4-9,13.7-19.2,13.3c0,0,0,0,0,0c-4.3,0.2-9.1-0.7-13.8-2.9c-11.1-5.1-17.4-15.1-14.1-22.4c3.3-7.3,13.2-11,23.7-4.8
			c5,3,9.6,10.5,12.2,13.8c6.6-9.8,12.2-24.2,14.8-36.7h-9.7l-16.9-66.1h-8.5V61.7h32.1v11.7H351l15.6,50.3
			c5.7-18.7,12.3-40.5,15.2-50.2h-9.9V61.8H404z"/>
		<path class="st1" d="M443.4,126.9v13.8l-43.8-0.1l3.4-19.8l10.7,2.2l1-92.1c-7.3-6.3-13.9-11.4-13.9-11.4l29.7-12.7l-1.1,120.1
			H443.4z"/>
		<path class="st2" d="M136.7,74.8c-7.9,0-14.7,7.5-17,18h34C151.3,82.3,144.6,74.8,136.7,74.8z"/>
		<path class="st1" d="M149,116c-5.3,4.2-8,10-7.1,14.4c-1,0.4-2.1,0.6-3.4,0.7c-0.2,0-3.1-0.1-4.3-0.5c-10.2-3-15.4-20.2-15.4-29.8
			c0-1,0-2,0.1-3c0-0.1,0-0.2,0-0.3h40l9.9-0.1c-1.3-20.3-15.3-36.3-32.3-36.3c-15.6,0-28.5,13.3-31.7,31.1
			c-0.3,1.9-0.5,3.7-0.6,5.6c-0.1,0.9-0.1,1.7-0.1,2.6c0,21.7,14.7,39.9,32.6,39.9c0,0,10.4-0.1,21.1-6.4c1.1-0.6,2.2-1.3,3.2-2.1
			c6.6-5.2,9.2-12.9,5.8-17.3C163.7,110.2,155.6,110.8,149,116z M136.7,74.8c7.9,0,14.7,7.5,17,18h-34
			C122,82.3,128.7,74.8,136.7,74.8z"/>
		<path class="st1" d="M112.5,8.2L112.4,29l-17.4,0l0,87.6c0,0.3-0.1,4.5-1.1,10.4c-1.8,10.3-5.9,25.1-18.4,33.5
			c0,0-10.7,9.1-33.4,9.1h0c-2.1,0-4.3-0.1-6.6-0.3c-3.3-0.5-6.8-1.5-10.3-3.2c-13.8-6.6-21.7-19.9-17.8-29.8
			c3.7-9.4,16.8-12.4,30-7.1c0.7,0.3,1.4,0.6,2.1,0.9c9.5,4.5,16.2,12.2,18.2,19.8c3.1-0.1,5.6-1.5,8.8-3.4
			c11.8-6.9,12.3-28.9,12.3-30.3l0-88.7l-17.3-6.4V8.7L112.5,8.2z"/>
	</g>
</g>
</svg>
