<?xml version="1.0" encoding="utf-8"?>
<!-- Generator: Adobe Illustrator 24.1.2, SVG Export Plug-In . SVG Version: 6.00 Build 0)  -->
<svg version="1.1" id="Layer_1" xmlns="http://www.w3.org/2000/svg" xmlns:xlink="http://www.w3.org/1999/xlink" x="0px" y="0px"
	 viewBox="0 0 130.4 141.3" style="enable-background:new 0 0 130.4 141.3;" xml:space="preserve">
<style type="text/css">
	.st0{fill:#5B616F;}
</style>
<path class="st0" d="M101.5,10.6l-0.1,15.1l-12.6,0l0,63.5c0,0.2,0,3.3-0.8,7.6c-1.3,7.5-4.3,18.2-13.3,24.3c0,0-7.7,6.6-24.2,6.6h0
	c-1.5,0-3.1-0.1-4.8-0.2c-2.4-0.4-5-1.1-7.5-2.3c-10-4.8-15.8-14.4-12.9-21.6c2.7-6.8,12.2-9,21.7-5.1c0.5,0.2,1,0.4,1.5,0.7
	c6.9,3.3,11.8,8.9,13.2,14.4c2.2,0,4.1-1.1,6.4-2.4C76.6,106,77,90,77,89l0-64.3L64.4,20v-9L101.5,10.6z"/>
</svg>
