<svg xmlns="http://www.w3.org/2000/svg" viewBox="0 0 398.26 237.93"><defs><style>.cls-1{fill:none;stroke:#98bdc7;stroke-miterlimit:10;stroke-width:2.25px;}.cls-2{fill:#584c48;}</style></defs><g id="quickdraw"><path class="cls-1" d="M221.24,73.86l-39.12,36.78s-5.93,7.17-16,1l8.21-8.69.92-1L164.19,90.28l-.83-.87-8.76,8.43a31,31,0,0,1-2.48-17.69c.14-1,15.19-27.05,15.18-27.07s-3-3.22,0-8.62a4.85,4.85,0,0,1,1.18-1.41c1.81-1.49,7.06-4,17.36-2.63,0,0,22,.92,32.8,14.38C218.61,54.8,226.9,66.33,221.24,73.86Z" transform="translate(-22.2 -38.91)"/><path class="cls-1" d="M167.14,53.37a2.12,2.12,0,0,0,.2-.6c.42-2,3.25-6.62,3.89-6.92.48-.22,4,2.22,6,3.69a2,2,0,0,1,.56,2.59C174,58.73,159.56,83.94,159.55,84c-.06.4-5.35-3-5.38-3a2,2,0,0,1-.95-2.79Z" transform="translate(-22.2 -38.91)"/><path class="cls-1" d="M211.79,67.54,174.36,103l.92-1L164.19,90.28c0-.14-4.9-4-3.71-8l17.56-31h0l.43-.74c.68-.32,22.62.59,32.11,9.86C210.59,60.42,214.68,63.79,211.79,67.54Z" transform="translate(-22.2 -38.91)"/><path class="cls-1" d="M175.28,102l-.92,1-8.21,8.69L138.5,140.83s-23.73,30.77-41.92,42.23L83,169.36c-.11-.65,20.23-25.39,40.87-42.19,1.49-1.21,19.58-18.57,30.78-29.33l8.76-8.43.83.87Z" transform="translate(-22.2 -38.91)"/><path class="cls-1" d="M96.71,188.16a.22.22,0,0,1-.28.07,6,6,0,0,0-1.63-.49,7,7,0,0,0-4.2.71h0l-5.68,5.26.32-.32-2.81-.24h0l-1.92-.47a1.53,1.53,0,0,1-1.33-1.27l-.29-1.71-.16-.87a1.9,1.9,0,0,0-.44-1,1.76,1.76,0,0,0-.56-.41,1.61,1.61,0,0,0-.43-.17l-1-.31-1.8-.52c-1.23-.47-1.73-3.87-1.73-3.87,0-.17.23-.37.35-.48L78,177.67a.24.24,0,0,0,.06-.08,7.75,7.75,0,0,0,.45-2.22,10.17,10.17,0,0,0-.08-2.16,11,11,0,0,0-.7-2.42.21.21,0,0,1,0-.25,5.47,5.47,0,0,1,5.05-1,.24.24,0,0,1,.09.06l13.59,13.65A3.58,3.58,0,0,1,96.71,188.16Z" transform="translate(-22.2 -38.91)"/><path class="cls-1" d="M62.86,171.06c6.29-2.24,10.13-2.14,15.48,0a36.59,36.59,0,0,1,.15,4.36,7.46,7.46,0,0,1-.47,2.27l-5,4.55a.31.31,0,0,0-.1.27" transform="translate(-22.2 -38.91)"/><path class="cls-1" d="M92.44,201.58l-37.2,38.71C47.67,245.88,37.41,237,37.41,237c-13.34-10.94-13.85-31.78-13.85-31.78-.83-11.53.73-15.49,2.15-17.76a6,6,0,0,1,2.49-2.18c4.18-2,6.53-.28,7,.4l-1.35.71c-1.23.66-2.23,1.18-2.88,1.54-.47.25-1.09,1.28-.78,1.72l2.88,4.69a18.18,18.18,0,0,0-.62,2.67s0,.38.07,1c0,.1,0,.21,0,.33,0,4.65,1.21,20.38,7.79,29.24a19.47,19.47,0,0,0,1.4,1.7l.16.17s0,0,0,0l.25.27a1.06,1.06,0,0,0,.15.15,7.74,7.74,0,0,0,1,.84,5.63,5.63,0,0,0,1,.58,5,5,0,0,0,.62.22,2,2,0,0,0,.26.08,1.86,1.86,0,0,0,.34.06,3.94,3.94,0,0,0,.78.05,4.44,4.44,0,0,0,.86-.12,3.4,3.4,0,0,0,.87-.32,4.23,4.23,0,0,0,.46-.25,5,5,0,0,0,.45-.3h0l35.83-37.06,5.68-5.24h0c1.67-.82,4-.38,5-.22C99.5,197,92.44,201.58,92.44,201.58Z" transform="translate(-22.2 -38.91)"/><path class="cls-1" d="M40.36,227.63c-6.58-8.86-7.77-24.59-7.79-29.24C32.86,203.12,34.2,219.07,40.36,227.63Z" transform="translate(-22.2 -38.91)"/><path class="cls-1" d="M33.89,186.4" transform="translate(-22.2 -38.91)"/><path class="cls-1" d="M35.24,185.69c8.16-4.35,23.64-12.49,27.39-14.47a1.16,1.16,0,0,1,1.44.29l3.58,4.17a1,1,0,0,1-.27,1.53l-.9.51L36,195.16c-.48.28-2.31.15-2.63-.32l-.3-.49-2.88-4.69c-.31-.44.31-1.47.78-1.72.65-.36,1.65-.88,2.88-1.54h0c.32-.11,1.27-.64,1.37-.68" transform="translate(-22.2 -38.91)"/><path class="cls-1" d="M64.52,179c.12-.14,7.55.13,8.47,2.59" transform="translate(-22.2 -38.91)"/></g><g id="climbing"><path class="cls-2" d="M149.19,216.1a3,3,0,0,0-1.12-3.73,4,4,0,0,0-4.12-.19,14.56,14.56,0,0,0-3.83,3,41.27,41.27,0,0,0-3.09,3.38,43.91,43.91,0,0,0-8.55,16.64,16.18,16.18,0,0,0-.86,4.71,2.74,2.74,0,0,0,2.55,2.57,8.19,8.19,0,0,0,4.13-1,41.44,41.44,0,0,0,4.23-2.08c5.66-3.23,10.53-7.69,15.09-12.31s9.13-9.21,12.55-14.65a28.58,28.58,0,0,0,3.74-8.59,12,12,0,0,0-.39-7.83c-1-2.17-3.29-3.71-5.71-2.89s-3.67,3.49-4.26,5.83a43.18,43.18,0,0,0-.83,4.92q-.39,2.79-.66,5.6-.52,5.66-.52,11.33c0,3.78.18,7.56.53,11.32.17,1.79.33,3.61.63,5.39.24,1.45,1.3,2.71,2.9,2.38a5.14,5.14,0,0,0,3-2.5c1-1.57,1.86-3.21,2.74-4.84q2.56-4.78,4.7-9.77c.69-1.62,1.35-3.24,2-4.88l-2-.27c-.89,7.19-1.76,14.46-.91,21.7a1,1,0,0,0,1.86.51,176.73,176.73,0,0,0,10.95-22l-2-.26-.4,21.77c0,1.1,1.78,1.4,2,.26l2.12-12.7c.32-1.94.55-3.92,1-5.84.22-1,.67-2.71,1.88-2.82l-1-1,2.16,17.45a1,1,0,0,0,.87,1,1,1,0,0,0,1.1-.72,42.75,42.75,0,0,1,7-18.18l-1.86-.5,1.47,25.14c0,.78,1.1,1.41,1.7.7a97.59,97.59,0,0,0,11.47-16.85,86.21,86.21,0,0,0,7.71-19.13c1-4,1.43-8.19.2-12.17a1,1,0,0,0-1.82-.24,65,65,0,0,0-6.67,28.7,62.17,62.17,0,0,0,.43,7.34,26.53,26.53,0,0,0,1.27,6.45,7.65,7.65,0,0,0,3.28,4.24,4.24,4.24,0,0,0,5.05-1c1.56-1.74,1.92-4.21,2-6.47a22.07,22.07,0,0,0-1.45-8.47l-1.67,1a5.42,5.42,0,0,0,6.37.28c2.2-1.34,3.32-3.8,4.3-6.07l-1.83-.24a113.55,113.55,0,0,1,1.14,19.93,1,1,0,0,0,1.87.51,118,118,0,0,0,7.46-19.19h-1.93c1,6.33.67,12.77.32,19.13-.06,1.11,1.77,1.39,2,.27a45.09,45.09,0,0,1,7-17.64l-1.83-.24c.79,4.14,1.48,8.3,2.36,12.41a3.9,3.9,0,0,0,3,3.37,7.65,7.65,0,0,0,4.52-1c5.71-2.74,10.69-8.27,12.25-14.5.37-1.5.12-3.19-1.37-4a4.92,4.92,0,0,0-4.06.07c-2.84,1.15-5.13,3.74-6.73,6.28a32.42,32.42,0,0,0-3.62,8.8c-.38,1.4-.92,3-.51,4.48a2.78,2.78,0,0,0,3.78,1.78,14.13,14.13,0,0,0,4.55-3.43,29.35,29.35,0,0,0,3.58-4.36,28.62,28.62,0,0,0,4.34-10.45l-1.93-.53a144,144,0,0,0-2.21,24.61c0,4,.23,8,.44,12.07.18,3.67.23,7.59-1.3,11a10.2,10.2,0,0,1-6.2,5.59c-2.72.79-6.59-.29-6.89-3.58a12.67,12.67,0,0,1,1.05-5.13,28.43,28.43,0,0,1,2.15-4.57,39,39,0,0,1,6.38-8.1c6.07-6.06,13.53-10.43,20.38-15.52,1-.76,0-2.49-1-1.72C271.05,240.82,264,245,258,250.66a44.56,44.56,0,0,0-7.07,8.37,26,26,0,0,0-4.17,10.4,6.28,6.28,0,0,0,1.39,5,7.19,7.19,0,0,0,4.32,2.28,10.26,10.26,0,0,0,8.47-3.16c5.85-5.7,4.06-14.87,3.8-22.17a141.2,141.2,0,0,1,2.05-29.61c.22-1.26-1.69-1.8-1.93-.53a27,27,0,0,1-8.17,14.65c-.88.82-2.16,2.2-3.42,2.34s-.82-1.85-.65-2.54a36.09,36.09,0,0,1,2.6-7.6,17.91,17.91,0,0,1,4.79-6.25,6.83,6.83,0,0,1,3.18-1.61c1-.14,1.94.15,1.81,1.34a12.67,12.67,0,0,1-1.4,3.84,23,23,0,0,1-2.13,3.45,21.47,21.47,0,0,1-5.92,5.4,11.76,11.76,0,0,1-4.13,1.82,2.07,2.07,0,0,1-1.82-.38,3.84,3.84,0,0,1-.72-2c-.77-4-1.51-8-2.27-12-.17-.9-1.39-.89-1.82-.24a46.54,46.54,0,0,0-7.21,18.11l2,.27c.36-6.56.67-13.14-.39-19.66-.17-1-1.67-.88-1.93,0A113.9,113.9,0,0,1,229.93,239l1.86.5A115.7,115.7,0,0,0,230.58,219a1,1,0,0,0-1.83-.24c-.76,1.78-1.55,3.74-3.08,5-1.18,1-3.19,1.48-4.45.39-.68-.59-2.06,0-1.67,1a20.42,20.42,0,0,1,1.38,6.59,11.27,11.27,0,0,1-.9,5.66c-.67,1.23-2,2.09-3.35,1.3a6.59,6.59,0,0,1-2.47-3.87,33,33,0,0,1-1-6,63,63,0,0,1,6.07-34l-1.82-.24a19.67,19.67,0,0,1,0,10.3,67.93,67.93,0,0,1-3.13,9.62,94.25,94.25,0,0,1-9.07,17.39,93.17,93.17,0,0,1-6.65,8.9l1.71.71-1.47-25.14a1,1,0,0,0-1.87-.51,44.12,44.12,0,0,0-7.22,18.66l2,.26-2.16-17.45c-.06-.5-.41-1-1-1-3.95.37-4.07,5.75-4.56,8.67l-2.35,14.16,2,.27.4-21.77c0-1.22-1.56-1.24-2-.27A174.83,174.83,0,0,1,171.3,238.9l1.87.5c-.85-7.24,0-14.51.91-21.7a1,1,0,0,0-.86-1,1,1,0,0,0-1.1.71A123.18,123.18,0,0,1,164,234.65c-.63,1.09-1.25,2.62-2.44,3.23-.36.18-.59.2-.76-.21a8.89,8.89,0,0,1-.35-2.3c-.4-3.27-.65-6.56-.78-9.85a121.16,121.16,0,0,1,.86-19.88c.33-2.63.53-5.54,1.62-8,.72-1.59,2.34-3.47,4.24-2.35,1.64,1,2.07,3.39,2.06,5.12a19,19,0,0,1-2,7.48c-2.37,5.1-6.15,9.38-10,13.43a125.54,125.54,0,0,1-12.39,11.91,48.34,48.34,0,0,1-7,4.74,35.78,35.78,0,0,1-3.79,1.84c-.89.37-2.21,1-3.21.66s-.21-2.46-.05-3.19c.3-1.33.66-2.65,1.09-3.95a41.69,41.69,0,0,1,3.37-7.57,41.09,41.09,0,0,1,4.72-6.68c.9-1,1.84-2,2.84-3a8.31,8.31,0,0,1,3.34-2.35,1.7,1.7,0,0,1,1.5.21c.3.22.74.7.56,1.11a1,1,0,0,0,.36,1.37,1,1,0,0,0,1.37-.36Z" transform="translate(-22.2 -38.91)"/><path class="cls-2" d="M226,207.38a4.21,4.21,0,0,0-.85,1.62,2.37,2.37,0,0,0,.41,2,1.9,1.9,0,0,0,2,.69,4.78,4.78,0,0,0,1.64-.93,9.33,9.33,0,0,0,2.51-2.76,2.73,2.73,0,0,0,.35-2.06,2.64,2.64,0,0,0-1.16-1.48c-1.4-.9-3-.31-4.38.31a1,1,0,0,0-.36,1.37,1,1,0,0,0,1.37.36l.33-.15c.11-.05,0,0,0,0l.14-.06a5.43,5.43,0,0,1,.75-.24s.29-.06.14,0a2.17,2.17,0,0,1,.36,0h.16c.07,0,.15.05,0,0l.27.07s.18.08.07,0,0,0,0,0l.1.06s.17.11.07,0,.07.07.1.1.13.15,0,0,0,0,0,.06a.93.93,0,0,1,.05.1s-.08-.2,0,0,0-.16,0,0,0,.21,0,0a.7.7,0,0,1,0,.14l0,.13a.55.55,0,1,0,0,.07c-.1.18-.21.36-.32.53l-.16.23-.12.15c.07-.08,0,0,0,0a8.17,8.17,0,0,1-.91.95l-.21.19-.14.11-.05,0,0,0-.15.11-.31.21c-.15.09-.4.25-.47.28s-.07,0-.07,0-.11,0-.07,0,.24,0,.13,0,.15.1,0,0,0,.06.06.06-.17-.17-.07-.06,0,0,0,0l0-.06c0,.11,0,.13,0,.06l0-.11c-.05-.13,0,0,0,.05a.75.75,0,0,1,0-.15c0-.1,0-.07,0,0s.12-.37.05-.2a1.74,1.74,0,0,1,.18-.33,6.82,6.82,0,0,1,.43-.62,1,1,0,0,0-.36-1.37,1,1,0,0,0-1.37.36Z" transform="translate(-22.2 -38.91)"/><path class="cls-2" d="M173.05,204.78l-.7,2.15a1,1,0,0,0,1.23,1.23,7.14,7.14,0,0,0,4.92-6.71,1,1,0,0,0-1.51-.86,4.3,4.3,0,0,0-1.76,1.7,1,1,0,1,0,1.72,1l.12-.19c0-.06.11-.16,0,0q.14-.17.3-.33l.13-.12c.2-.17-.08,0,.05,0s.27-.18.42-.25l-1.5-.87c0,.16,0,.31,0,.46a1.23,1.23,0,0,1,0,.2c0,.28,0-.2,0,.06a5.39,5.39,0,0,1-.22.88c0,.13-.09.26-.14.39.09-.22,0,0,0,.06l-.1.19a5.67,5.67,0,0,1-.47.77l0,0c-.05.06-.1.13-.16.19a4,4,0,0,1-.27.31l-.33.31-.16.13c-.2.18.16-.11-.06,0a6.06,6.06,0,0,1-.76.48l-.19.09c-.09,0-.15.07,0,0l-.47.17,1.23,1.23.7-2.15a1,1,0,0,0-1.93-.54Z" transform="translate(-22.2 -38.91)"/><path class="cls-2" d="M419.74,102.68l-4-1.34a1,1,0,0,0-1.23.7,1,1,0,0,0,.7,1.23l4,1.34a1,1,0,0,0,1.23-.7,1,1,0,0,0-.7-1.23Z" transform="translate(-22.2 -38.91)"/></g></svg>